<svg width="14" height="12" viewBox="0 0 14 12" fill="none" xmlns="http://www.w3.org/2000/svg">
<g clip-path="url(#clip0_167_3096)">
<g clip-path="url(#clip1_167_3096)">
<path d="M13.143 0H0.857C0.383692 0 0 0.383692 0 0.857C0 1.33031 0.383692 1.714 0.857 1.714H13.143C13.6163 1.714 14 1.33031 14 0.857C14 0.383692 13.6163 0 13.143 0Z" fill="black"/>
<path d="M13.143 10.286H0.857C0.383692 10.286 0 10.6697 0 11.143C0 11.6163 0.383692 12 0.857 12H13.143C13.6163 12 14 11.6163 14 11.143C14 10.6697 13.6163 10.286 13.143 10.286Z" fill="black"/>
<path d="M13.143 5.143H0.857C0.383692 5.143 0 5.52669 0 6C0 6.47331 0.383692 6.857 0.857 6.857H13.143C13.6163 6.857 14 6.47331 14 6C14 5.52669 13.6163 5.143 13.143 5.143Z" fill="black"/>
</g>
</g>
<defs>
<clipPath id="clip0_167_3096">
<rect width="14" height="12" fill="white"/>
</clipPath>
<clipPath id="clip1_167_3096">
<rect width="14" height="12" fill="white"/>
</clipPath>
</defs>
</svg>
