<svg width="17" height="17" viewBox="0 0 17 17" fill="none" xmlns="http://www.w3.org/2000/svg">
<path d="M8.22758 14.4748L4.20978 16.6894C3.72984 16.9499 3.13334 16.7579 2.87965 16.2574C2.77681 16.0517 2.74253 15.8255 2.78366 15.6061L3.55157 10.9301L0.294822 7.61847C0.106351 7.4229 -8.84909e-05 7.16259 -0.00263865 6.891C-0.0051888 6.61941 0.0963438 6.35715 0.281109 6.15808C0.431948 6.00038 0.623925 5.89068 0.843327 5.86325L5.33421 5.17762L7.34311 0.926706C7.41648 0.752733 7.53951 0.604258 7.69683 0.499862C7.85416 0.395465 8.03877 0.339783 8.22758 0.339783C8.41639 0.339783 8.601 0.395465 8.75832 0.499862C8.91564 0.604258 9.03868 0.752733 9.11204 0.926706L11.1209 5.17762L15.6118 5.86325C15.8744 5.91185 16.1077 6.06063 16.2625 6.27815C16.4173 6.49566 16.4815 6.76486 16.4414 7.02883C16.414 7.24823 16.3112 7.46078 16.1603 7.61847L12.9036 10.9301L13.6715 15.6061C13.7675 16.1614 13.4041 16.6962 12.8693 16.7922C12.6636 16.8265 12.4374 16.7922 12.2522 16.6894L8.22758 14.4748Z" fill="#F7A301"/>
</svg>
