<svg width="17" height="13" viewBox="0 0 17 13" fill="none" xmlns="http://www.w3.org/2000/svg">
<g clip-path="url(#clip0_167_3136)">
<g clip-path="url(#clip1_167_3136)">
<path fill-rule="evenodd" clip-rule="evenodd" d="M12.4843 0.464286C12.8613 0.464286 13.1668 0.772571 13.1668 1.15143V10.1883L15.0332 8.30607C15.0963 8.24206 15.1715 8.19123 15.2543 8.15653C15.3372 8.12183 15.4262 8.10397 15.5161 8.10397C15.6059 8.10397 15.6949 8.12183 15.7778 8.15653C15.8607 8.19123 15.9359 8.24206 15.9989 8.30607C16.1268 8.43555 16.1985 8.6102 16.1985 8.79218C16.1985 8.97416 16.1268 9.14881 15.9989 9.27829L12.9671 12.3342C12.9046 12.3977 12.8302 12.4482 12.7481 12.4829C12.6661 12.5175 12.578 12.5357 12.4889 12.5363C12.3998 12.5369 12.3115 12.5199 12.2289 12.4864C12.1464 12.4528 12.0713 12.4033 12.0079 12.3407L12.0014 12.3342L8.96964 9.27829C8.84177 9.14881 8.77006 8.97416 8.77006 8.79218C8.77006 8.6102 8.84177 8.43555 8.96964 8.30607C9.03271 8.24206 9.10788 8.19123 9.19078 8.15653C9.27367 8.12183 9.36264 8.10397 9.4525 8.10397C9.54236 8.10397 9.63133 8.12183 9.71422 8.15653C9.79712 8.19123 9.87229 8.24206 9.93536 8.30607L11.8018 10.1883V1.15143C11.8018 0.770714 12.1082 0.464286 12.4843 0.464286ZM5.05571 12.5357C5.2373 12.535 5.41117 12.4622 5.53914 12.3334C5.66711 12.2045 5.73871 12.0302 5.73821 11.8486V2.81079L7.60464 4.693C7.66771 4.75701 7.74288 4.80784 7.82578 4.84254C7.90867 4.87724 7.99764 4.89511 8.0875 4.89511C8.17736 4.89511 8.26633 4.87724 8.34922 4.84254C8.43212 4.80784 8.50729 4.75701 8.57036 4.693C8.69823 4.56352 8.76994 4.38887 8.76994 4.20689C8.76994 4.02491 8.69823 3.85026 8.57036 3.72079L5.53857 0.665786C5.4755 0.601773 5.40033 0.550941 5.31744 0.516244C5.23454 0.481548 5.14558 0.46368 5.05571 0.46368C4.96585 0.46368 4.87688 0.481548 4.79399 0.516244C4.7111 0.550941 4.63593 0.601773 4.57286 0.665786L1.54107 3.72171C1.4132 3.85119 1.34149 4.02584 1.34149 4.20782C1.34149 4.3898 1.4132 4.56445 1.54107 4.69393C1.60414 4.75794 1.67931 4.80877 1.7622 4.84347C1.8451 4.87817 1.93406 4.89603 2.02393 4.89603C2.11379 4.89603 2.20276 4.87817 2.28565 4.84347C2.36855 4.80877 2.44372 4.75794 2.50679 4.69393L4.37321 2.81171V11.8476C4.37321 12.2284 4.67964 12.5357 5.05571 12.5357Z" fill="#242424"/>
</g>
</g>
<defs>
<clipPath id="clip0_167_3136">
<rect width="16" height="13" fill="white" transform="translate(0.770004)"/>
</clipPath>
<clipPath id="clip1_167_3136">
<rect width="14.8571" height="13" fill="white" transform="translate(1.34143)"/>
</clipPath>
</defs>
</svg>
