<svg width="17" height="16" viewBox="0 0 17 16" fill="none" xmlns="http://www.w3.org/2000/svg">
<g clip-path="url(#clip0_167_3176)">
<g clip-path="url(#clip1_167_3176)">
<path fill-rule="evenodd" clip-rule="evenodd" d="M7.13 4C7.13 4.39782 6.97197 4.77936 6.69067 5.06066C6.40936 5.34196 6.02783 5.5 5.63 5.5C5.23218 5.5 4.85065 5.34196 4.56934 5.06066C4.28804 4.77936 4.13 4.39782 4.13 4C4.13 3.60217 4.28804 3.22064 4.56934 2.93934C4.85065 2.65803 5.23218 2.5 5.63 2.5C6.02783 2.5 6.40936 2.65803 6.69067 2.93934C6.97197 3.22064 7.13 3.60217 7.13 4ZM8.589 4.5C8.47203 5.20025 8.1105 5.83633 7.56871 6.29513C7.02691 6.75393 6.33996 7.00571 5.63 7.00571C4.92005 7.00571 4.2331 6.75393 3.6913 6.29513C3.14951 5.83633 2.78798 5.20025 2.671 4.5H1.38C1.18109 4.5 0.990327 4.42098 0.849675 4.28033C0.709023 4.13968 0.630005 3.94891 0.630005 3.75C0.630005 3.55109 0.709023 3.36032 0.849675 3.21967C0.990327 3.07902 1.18109 3 1.38 3H2.8C3.00661 2.41447 3.38974 1.90743 3.8966 1.54879C4.40347 1.19014 5.00909 0.997549 5.63 0.997549C6.25092 0.997549 6.85654 1.19014 7.36341 1.54879C7.87027 1.90743 8.2534 2.41447 8.46 3H15.88C16.0789 3 16.2697 3.07902 16.4103 3.21967C16.551 3.36032 16.63 3.55109 16.63 3.75C16.63 3.94891 16.551 4.13968 16.4103 4.28033C16.2697 4.42098 16.0789 4.5 15.88 4.5H8.589ZM14.459 10H15.88C16.0789 10 16.2697 10.079 16.4103 10.2197C16.551 10.3603 16.63 10.5511 16.63 10.75C16.63 10.9489 16.551 11.1397 16.4103 11.2803C16.2697 11.421 16.0789 11.5 15.88 11.5H14.589C14.472 12.2003 14.1105 12.8363 13.5687 13.2951C13.0269 13.7539 12.34 14.0057 11.63 14.0057C10.92 14.0057 10.2331 13.7539 9.6913 13.2951C9.14951 12.8363 8.78798 12.2003 8.67101 11.5H1.38C1.18109 11.5 0.990327 11.421 0.849675 11.2803C0.709023 11.1397 0.630005 10.9489 0.630005 10.75C0.630005 10.5511 0.709023 10.3603 0.849675 10.2197C0.990327 10.079 1.18109 10 1.38 10H8.8C9.00661 9.41447 9.38974 8.90743 9.8966 8.54879C10.4035 8.19014 11.0091 7.99755 11.63 7.99755C12.2509 7.99755 12.8565 8.19014 13.3634 8.54879C13.8703 8.90743 14.2524 9.41447 14.459 10ZM13.13 11C13.13 11.197 13.0912 11.392 13.0158 11.574C12.9404 11.756 12.83 11.9214 12.6907 12.0607C12.5514 12.1999 12.386 12.3104 12.204 12.3858C12.022 12.4612 11.827 12.5 11.63 12.5C11.433 12.5 11.238 12.4612 11.056 12.3858C10.874 12.3104 10.7086 12.1999 10.5693 12.0607C10.4301 11.9214 10.3196 11.756 10.2442 11.574C10.1688 11.392 10.13 11.197 10.13 11C10.13 10.6022 10.288 10.2206 10.5693 9.93934C10.8506 9.65804 11.2322 9.5 11.63 9.5C12.0278 9.5 12.4094 9.65804 12.6907 9.93934C12.972 10.2206 13.13 10.6022 13.13 11Z" fill="black"/>
</g>
</g>
<defs>
<clipPath id="clip0_167_3176">
<rect width="16" height="16" fill="white" transform="translate(0.630005)"/>
</clipPath>
<clipPath id="clip1_167_3176">
<rect width="16" height="16" fill="white" transform="translate(0.630005)"/>
</clipPath>
</defs>
</svg>
