<svg width="20" height="20" viewBox="0 0 20 20" fill="none" xmlns="http://www.w3.org/2000/svg">
<path d="M11.1692 2.425L11.35 2.51583L15.3175 4.66333C16.3817 5.23833 17.2225 6.58 17.2933 7.78167L17.2983 7.94417V11.8725C17.9398 12.5097 18.31 13.3703 18.3317 14.2742C18.3494 14.9207 18.1811 15.5588 17.8467 16.1125C17.661 16.4353 17.4237 16.7256 17.1442 16.9717C16.4884 17.5616 15.6427 17.8966 14.7608 17.9158C13.8368 17.9378 12.9383 17.6111 12.2442 17.0008L11.35 17.4842C10.3567 18.0283 8.84667 18.0583 7.79833 17.5758L7.61833 17.4858L3.6475 15.3358C2.58417 14.7608 1.7425 13.4192 1.67167 12.2175L1.66667 12.055V7.94417C1.66667 6.7575 2.46167 5.39 3.50417 4.74667L3.6475 4.66333L7.61667 2.51667C8.60917 1.9725 10.12 1.94167 11.17 2.425H11.1692ZM3.05833 7.52417C3.03583 7.62 3.01917 7.71583 3.01167 7.8075L3.005 7.94417V12.055C3.005 12.775 3.54083 13.7042 4.17667 14.12L4.29667 14.1925L8.27167 16.3442C8.4275 16.4292 8.61333 16.4942 8.81333 16.5383V10.7758L3.05833 7.52417ZM15.64 10.9208L15.5267 10.8925C15.605 10.9108 15.6833 10.9317 15.76 10.955L15.58 10.905C15.7092 10.9367 15.8358 10.975 15.9592 11.02L15.96 7.945C15.96 7.80917 15.9408 7.66667 15.9058 7.52167L10.1517 10.775L10.1525 16.5383C10.295 16.5067 10.43 16.465 10.5525 16.4125L10.6983 16.3417L11.4292 15.9467C11.0627 15.2298 10.9544 14.4085 11.1224 13.6211C11.2904 12.8337 11.7245 12.1282 12.3517 11.6233C12.9365 11.1512 13.6506 10.8671 14.4 10.8083L14.6067 10.7983H14.7883L14.8883 10.8033L14.9242 10.8058C15.0625 10.8142 15.1992 10.83 15.3325 10.8533L15.3683 10.86C15.4217 10.8692 15.4742 10.88 15.5267 10.8925L15.6125 10.9133L15.6317 10.9192L15.6308 10.9183L15.64 10.9208ZM16.1867 13.2758C16.3533 13.445 16.3683 13.7042 16.2325 13.8883L16.1742 13.9542L14.6208 15.4208C14.5395 15.4969 14.435 15.5437 14.324 15.5536C14.2131 15.5636 14.102 15.5362 14.0083 15.4758L13.9417 15.4233L13.19 14.7267C13.1435 14.6839 13.106 14.6322 13.0798 14.5746C13.0537 14.5171 13.0394 14.4548 13.0377 14.3916C13.0361 14.3284 13.0472 14.2655 13.0703 14.2067C13.0935 14.1479 13.1282 14.0943 13.1725 14.0492C13.2527 13.9675 13.3586 13.9158 13.4723 13.9027C13.5861 13.8897 13.7009 13.9161 13.7975 13.9775L13.8667 14.0317L14.275 14.4125L15.4925 13.2642C15.5871 13.1756 15.7124 13.1274 15.8419 13.1296C15.9715 13.1317 16.0951 13.1842 16.1867 13.2758ZM8.41333 3.58667L8.2675 3.6575L4.29667 5.8075C4.05177 5.94744 3.83549 6.13234 3.65917 6.3525L9.48167 9.64417L15.3042 6.35083C15.1926 6.2149 15.0672 6.0909 14.93 5.98083L14.7967 5.88417L14.6692 5.80667L10.6975 3.65667L10.5492 3.585C9.94083 3.32583 9.02417 3.32583 8.41333 3.58667ZM12.3833 14.3367V14.3667C12.3842 14.7183 12.47 15.0583 12.6367 15.375L12.7283 15.5333C12.7692 15.6033 12.8233 15.6775 12.8908 15.755C12.9133 15.78 12.9342 15.8075 12.9517 15.835C13.1733 16.086 13.4472 16.2854 13.7541 16.4191C14.0611 16.5529 14.3936 16.6178 14.7283 16.6092C15.2885 16.5967 15.8255 16.3828 16.2408 16.0067C16.4179 15.8513 16.568 15.6677 16.685 15.4633C16.8975 15.1125 17.005 14.7158 16.9933 14.3067C16.9859 14.0018 16.9159 13.7017 16.7876 13.425C16.6593 13.1483 16.4754 12.901 16.2475 12.6983L16.1825 12.6492C15.9564 12.4563 15.6944 12.3099 15.4117 12.2183L15.4033 12.215L15.3833 12.2092L15.255 12.1733L15.2383 12.1692L15.1283 12.1458C15.0487 12.1311 14.9683 12.1206 14.8875 12.1142L14.8542 12.1108L14.6883 12.1058L14.5283 12.1108L14.5075 12.1117H14.5283L14.4767 12.115L14.365 12.1283C13.9567 12.185 13.5725 12.3492 13.245 12.6033C12.9977 12.7937 12.7936 13.0342 12.6459 13.3091C12.4983 13.584 12.4105 13.8871 12.3883 14.1983L12.3825 14.35L12.3833 14.3367Z" fill="#0E0E0F"/>
</svg>
