<svg width="20" height="20" viewBox="0 0 20 20" fill="none" xmlns="http://www.w3.org/2000/svg">
<path d="M9.16667 15.75C9.16667 15.96 9.25007 16.1613 9.39854 16.3098C9.54701 16.4583 9.74837 16.5417 9.95833 16.5417C10.1683 16.5417 10.3697 16.4583 10.5181 16.3098C10.6666 16.1613 10.75 15.96 10.75 15.75H12.0833C12.0833 16.3025 11.8638 16.8324 11.4731 17.2231C11.0824 17.6138 10.5525 17.8333 10 17.8333C9.44747 17.8333 8.91756 17.6138 8.52686 17.2231C8.13616 16.8324 7.91667 16.3025 7.91667 15.75H9.16667ZM10 2.16667H10.1667C11 2.16667 11.6667 2.83333 11.8333 3.66667V3.83333L11.9167 4H12.0833C12.8978 4.37008 13.598 4.9519 14.111 5.68477C14.624 6.41765 14.931 7.27474 15 8.16667V10.8333L16 12C16.1667 12.1667 16.25 12.4167 16.25 12.6667V13.3333C16.2131 13.7186 16.0432 14.0791 15.7695 14.3528C15.4957 14.6265 15.1353 14.7964 14.75 14.8333H5.33333C5.04304 14.8287 4.759 14.7483 4.50933 14.6001C4.25965 14.452 4.05302 14.2412 3.90988 13.9886C3.76675 13.736 3.69208 13.4504 3.69327 13.16C3.69446 12.8697 3.77147 12.5847 3.91667 12.3333L4 12.1667L5 10.9167V8.66667C4.98532 7.7119 5.24434 6.77289 5.74644 5.96067C6.24853 5.14846 6.97271 4.497 7.83333 4.08333H8L8.16667 4V3.83333C8.33333 3 9 2.33333 9.83333 2.16667H10ZM10 3.5C9.66667 3.5 9.5 3.75 9.41667 4V4.58333C9.41667 4.83333 9.25 5 9.08333 5.08333C8.33102 5.27611 7.65934 5.70278 7.16511 6.30184C6.67088 6.90091 6.37963 7.64143 6.33333 8.41667V11.1667L6.25 11.4167L5 13C4.9717 13.0423 4.95345 13.0905 4.94664 13.1409C4.93984 13.1913 4.94467 13.2426 4.96076 13.2909C4.97684 13.3391 5.00376 13.3831 5.03945 13.4193C5.07515 13.4556 5.11866 13.4832 5.16667 13.5H14.6667C14.7112 13.4903 14.7532 13.4717 14.7902 13.4451C14.8272 13.4186 14.8584 13.3848 14.8818 13.3457C14.9052 13.3067 14.9204 13.2633 14.9264 13.2181C14.9324 13.173 14.9291 13.1271 14.9167 13.0833V13L13.8333 11.5833L13.75 11.3333V8.75C13.75 7.08333 12.5833 5.58333 10.9167 5.16667C10.8274 5.13578 10.7488 5.08025 10.6898 5.00651C10.6308 4.93278 10.5939 4.84384 10.5833 4.75V4.16667C10.5833 3.83333 10.3333 3.58333 10 3.58333V3.5Z" fill="#0E0E0F"/>
</svg>
