<svg width="48" height="40" viewBox="0 0 48 40" fill="none" xmlns="http://www.w3.org/2000/svg">
<rect width="48" height="40" fill="white"/>
<path d="M19.65 23.07C19.7827 23.0934 19.9191 23.0867 20.0489 23.0503C20.1787 23.014 20.2987 22.9489 20.4 22.86L23.83 19.8L27.09 20.92C27.2532 20.974 27.4285 20.98 27.5951 20.9375C27.7617 20.895 27.9126 20.8056 28.03 20.68L31.71 16.88C31.8437 16.7023 31.9068 16.4814 31.8873 16.2598C31.8678 16.0383 31.7669 15.8319 31.6042 15.6803C31.4414 15.5288 31.2283 15.4428 31.006 15.4391C30.7836 15.4353 30.5678 15.514 30.4 15.66L27.12 19.04L23.92 17.94C23.7676 17.8865 23.6037 17.875 23.4453 17.9066C23.287 17.9383 23.1401 18.012 23.02 18.12L19.22 21.52C19.0963 21.632 19.0062 21.7762 18.9598 21.9365C18.9133 22.0968 18.9124 22.2668 18.957 22.4276C19.0016 22.5884 19.09 22.7336 19.2124 22.8471C19.3348 22.9605 19.4863 23.0377 19.65 23.07ZM17.79 26.07V13.03C17.79 12.7913 17.6952 12.5624 17.5264 12.3936C17.3576 12.2248 17.1287 12.13 16.89 12.13C16.6513 12.13 16.4224 12.2248 16.2536 12.3936C16.0848 12.5624 15.99 12.7913 15.99 13.03V26.97C15.99 27.47 16.39 27.87 16.89 27.87H31.1C31.3387 27.87 31.5676 27.7752 31.7364 27.6064C31.9052 27.4376 32 27.2087 32 26.97C32 26.7313 31.9052 26.5024 31.7364 26.3336C31.5676 26.1648 31.3387 26.07 31.1 26.07H17.8H17.79Z" fill="#0E0E0F"/>
</svg>
