<svg width="57" height="40" viewBox="0 0 57 40" fill="none" xmlns="http://www.w3.org/2000/svg">
<rect width="56" height="40" transform="translate(0.879883)" fill="white"/>
<path d="M32.8799 20C32.8799 20.5304 33.0906 21.0391 33.4657 21.4142C33.8407 21.7893 34.3494 22 34.8799 22C35.4103 22 35.919 21.7893 36.2941 21.4142C36.6692 21.0391 36.8799 20.5304 36.8799 20C36.8799 19.4696 36.6692 18.9609 36.2941 18.5858C35.919 18.2107 35.4103 18 34.8799 18C34.3494 18 33.8407 18.2107 33.4657 18.5858C33.0906 18.9609 32.8799 19.4696 32.8799 20ZM20.8799 20C20.8799 20.5304 21.0906 21.0391 21.4657 21.4142C21.8407 21.7893 22.3494 22 22.8799 22C23.4103 22 23.919 21.7893 24.2941 21.4142C24.6692 21.0391 24.8799 20.5304 24.8799 20C24.8799 19.4696 24.6692 18.9609 24.2941 18.5858C23.919 18.2107 23.4103 18 22.8799 18C22.3494 18 21.8407 18.2107 21.4657 18.5858C21.0906 18.9609 20.8799 19.4696 20.8799 20ZM26.8799 20C26.8799 20.5304 27.0906 21.0391 27.4657 21.4142C27.8407 21.7893 28.3494 22 28.8799 22C29.4103 22 29.919 21.7893 30.2941 21.4142C30.6692 21.0391 30.8799 20.5304 30.8799 20C30.8799 19.4696 30.6692 18.9609 30.2941 18.5858C29.919 18.2107 29.4103 18 28.8799 18C28.3494 18 27.8407 18.2107 27.4657 18.5858C27.0906 18.9609 26.8799 19.4696 26.8799 20Z" fill="#0E0E0F"/>
</svg>
