<svg width="1262" height="299" viewBox="0 0 1262 299" fill="none" xmlns="http://www.w3.org/2000/svg">
<mask id="mask0_142_915" style="mask-type:luminance" maskUnits="userSpaceOnUse" x="1" y="0" width="1260" height="299">
<path d="M1261 0H1V299H1261V0Z" fill="white"/>
</mask>
<g mask="url(#mask0_142_915)">
<path d="M1 136.686H15.0065H29.013H43.0195H57.0259H71.0324H85.0389H99.0454H113.052H127.058H141.065H155.071H169.078H183.084H197.091H211.097H225.104H239.11H253.117H267.123H281.13H295.136H309.143H323.149H337.156H351.162H365.169H379.175H393.182H407.188H421.195H435.201H449.207H463.214H477.22H491.227H505.233H519.24H533.246H547.253H561.259H575.266H589.272H603.279H617.285H631.292H645.298H659.305H673.311H686.734H700.741H714.747H728.754H742.76H756.767H770.773H784.78H798.786H812.792H826.799H840.805H854.812H868.818H882.825H896.831H910.838H924.844H938.851H952.857H966.864H980.87H994.877H1008.88H1022.89H1036.9H1050.9H1064.91H1078.92H1092.92H1106.93H1120.94H1134.94H1148.95H1162.95H1176.96H1190.97H1204.97H1218.98H1232.99H1246.99H1261V299H1246.99H1232.99H1218.98H1204.97H1190.97H1176.96H1162.95H1148.95H1134.94H1120.94H1106.93H1092.92H1078.92H1064.91H1050.9H1036.9H1022.89H1008.88H994.877H980.87H966.864H952.857H938.851H924.844H910.838H896.831H882.825H868.818H854.812H840.805H826.799H812.792H798.786H784.78H770.773H756.767H742.76H728.754H714.747H700.741H686.734H673.311H659.305H645.298H631.292H617.285H603.279H589.272H575.266H561.259H547.253H533.246H519.24H505.233H491.227H477.22H463.214H449.207H435.201H421.195H407.188H393.182H379.175H365.169H351.162H337.156H323.149H309.143H295.136H281.13H267.123H253.117H239.11H225.104H211.097H197.091H183.084H169.078H155.071H141.065H127.058H113.052H99.0454H85.0389H71.0324H57.0259H43.0195H29.013H15.0065H1V136.686Z" fill="url(#paint0_linear_142_915)"/>
<path d="M1 136.686H15.0065H29.013H43.0195H57.0259H71.0324H85.0389H99.0454H113.052H127.058H141.065H155.071H169.078H183.084H197.091H211.097H225.104H239.11H253.117H267.123H281.13H295.136H309.143H323.149H337.156H351.162H365.169H379.175H393.182H407.188H421.195H435.201H449.207H463.214H477.22H491.227H505.233H519.24H533.246H547.253H561.259H575.266H589.272H603.279H617.285H631.292H645.298H659.305H673.311H686.734H700.741H714.747H728.754H742.76H756.767H770.773H784.78H798.786H812.792H826.799H840.805H854.812H868.818H882.825H896.831H910.838H924.844H938.851H952.857H966.864H980.87H994.877H1008.88H1022.89H1036.9H1050.9H1064.91H1078.92H1092.92H1106.93H1120.94H1134.94H1148.95H1162.95H1176.96H1190.97H1204.97H1218.98H1232.99H1246.99H1261" stroke="#1379D4" stroke-width="2" stroke-linecap="round" stroke-linejoin="round"/>
</g>
<path d="M1 138C0.734827 138 0.480511 137.895 0.292982 137.707C0.105452 137.52 6.63246e-05 137.265 3.12952e-08 137C-6.6262e-05 136.735 0.105193 136.481 0.292628 136.293C0.480063 136.106 0.734327 136 0.9995 136C1.26467 136 1.51904 136.105 1.70666 136.292C1.89429 136.48 1.9998 136.734 2 136.999C2.0002 137.264 1.89507 137.519 1.70773 137.706C1.52038 137.894 1.26517 138 1 138Z" fill="#1379D4"/>
<path d="M15 138C14.7348 138 14.4805 137.895 14.293 137.707C14.1055 137.52 14.0001 137.265 14 137C13.9999 136.735 14.1052 136.481 14.2926 136.293C14.4801 136.106 14.7343 136 14.9995 136C15.2647 136 15.519 136.105 15.7067 136.292C15.8943 136.48 15.9998 136.734 16 136.999C16.0002 137.264 15.8951 137.519 15.7077 137.706C15.5204 137.894 15.2662 138 15.001 138H15Z" fill="#1379D4"/>
<path d="M29 138C28.7348 138 28.4805 137.895 28.293 137.707C28.1055 137.52 28.0001 137.265 28 137C27.9999 136.735 28.1052 136.481 28.2926 136.293C28.4801 136.106 28.7343 136 28.9995 136C29.2647 136 29.519 136.105 29.7067 136.292C29.8943 136.48 29.9998 136.734 30 136.999C30.0002 137.264 29.8951 137.519 29.7077 137.706C29.5204 137.894 29.2652 138 29 138Z" fill="#1379D4"/>
<path d="M43 138C42.7348 138 42.4805 137.895 42.293 137.707C42.1055 137.52 42.0001 137.265 42 137C41.9999 136.735 42.1052 136.481 42.2926 136.293C42.4801 136.106 42.7343 136 42.9995 136C43.2647 136 43.519 136.105 43.7067 136.292C43.8943 136.48 43.9998 136.734 44 136.999C44.0002 137.264 43.8951 137.519 43.7077 137.706C43.5204 137.894 43.2652 138 43 138Z" fill="#1379D4"/>
<path d="M57 138C56.7348 138 56.4805 137.895 56.293 137.707C56.1055 137.52 56.0001 137.265 56 137C55.9999 136.735 56.1052 136.481 56.2926 136.293C56.4801 136.106 56.7343 136 56.9995 136C57.2647 136 57.519 136.105 57.7067 136.292C57.8943 136.48 57.9998 136.734 58 136.999C58.0002 137.264 57.8951 137.519 57.7077 137.706C57.5204 137.894 57.2652 138 57 138Z" fill="#1379D4"/>
<path d="M71 138C70.7348 138 70.4805 137.895 70.293 137.707C70.1055 137.52 70.0001 137.265 70 137C69.9999 136.735 70.1052 136.481 70.2926 136.293C70.4801 136.106 70.7343 136 70.9995 136C71.2647 136 71.519 136.105 71.7067 136.292C71.8943 136.48 71.9998 136.734 72 136.999C72.0002 137.264 71.8951 137.519 71.7077 137.706C71.5204 137.894 71.2652 138 71 138Z" fill="#1379D4"/>
<path d="M85 138C84.7348 138 84.4805 137.895 84.293 137.707C84.1055 137.52 84.0001 137.265 84 137C83.9999 136.735 84.1052 136.481 84.2926 136.293C84.4801 136.106 84.7343 136 84.9995 136C85.2647 136 85.519 136.105 85.7067 136.292C85.8943 136.48 85.9998 136.734 86 136.999C86.0002 137.264 85.8951 137.519 85.7077 137.706C85.5204 137.894 85.2652 138 85 138Z" fill="#1379D4"/>
<path d="M99 138C98.7348 138 98.4805 137.895 98.293 137.707C98.1055 137.52 98.0001 137.265 98 137C97.9999 136.735 98.1052 136.481 98.2926 136.293C98.4801 136.106 98.7343 136 98.9995 136C99.2647 136 99.519 136.105 99.7067 136.292C99.8943 136.48 99.9998 136.734 100 136.999C100 137.264 99.8951 137.519 99.7077 137.706C99.5204 137.894 99.2652 138 99 138Z" fill="#1379D4"/>
<path d="M113 138C112.735 138 112.481 137.895 112.293 137.707C112.105 137.52 112 137.265 112 137C112 136.735 112.105 136.481 112.293 136.293C112.48 136.106 112.734 136 112.999 136C113.265 136 113.519 136.105 113.707 136.292C113.894 136.48 114 136.734 114 136.999C114 137.264 113.895 137.519 113.708 137.706C113.52 137.894 113.265 138 113 138Z" fill="#1379D4"/>
<path d="M127 138C126.735 138 126.481 137.895 126.293 137.707C126.105 137.52 126 137.265 126 137C126 136.735 126.105 136.481 126.293 136.293C126.48 136.106 126.734 136 126.999 136C127.265 136 127.519 136.105 127.707 136.292C127.894 136.48 128 136.734 128 136.999C128 137.264 127.895 137.519 127.708 137.706C127.52 137.894 127.265 138 127 138Z" fill="#1379D4"/>
<path d="M141 138C140.735 138 140.481 137.895 140.293 137.707C140.105 137.52 140 137.265 140 137C140 136.735 140.105 136.481 140.293 136.293C140.48 136.106 140.734 136 140.999 136C141.265 136 141.519 136.105 141.707 136.292C141.894 136.48 142 136.734 142 136.999C142 137.264 141.895 137.519 141.708 137.706C141.52 137.894 141.266 138 141.001 138H141Z" fill="#1379D4"/>
<path d="M155 138C154.735 138 154.481 137.895 154.293 137.707C154.105 137.52 154 137.265 154 137C154 136.735 154.105 136.481 154.293 136.293C154.48 136.106 154.734 136 154.999 136C155.265 136 155.519 136.105 155.707 136.292C155.894 136.48 156 136.734 156 136.999C156 137.264 155.895 137.519 155.708 137.706C155.52 137.894 155.266 138 155.001 138H155Z" fill="#1379D4"/>
<path d="M169 138C168.735 138 168.481 137.895 168.293 137.707C168.105 137.52 168 137.265 168 137C168 136.735 168.105 136.481 168.293 136.293C168.48 136.106 168.734 136 168.999 136C169.265 136 169.519 136.105 169.707 136.292C169.894 136.48 170 136.734 170 136.999C170 137.264 169.895 137.519 169.708 137.706C169.52 137.894 169.266 138 169.001 138H169Z" fill="#1379D4"/>
<path d="M183 138C182.735 138 182.481 137.895 182.293 137.707C182.105 137.52 182 137.265 182 137C182 136.735 182.105 136.481 182.293 136.293C182.48 136.106 182.734 136 182.999 136C183.265 136 183.519 136.105 183.707 136.292C183.894 136.48 184 136.734 184 136.999C184 137.264 183.895 137.519 183.708 137.706C183.52 137.894 183.266 138 183.001 138H183Z" fill="#1379D4"/>
<path d="M197 138C196.735 138 196.481 137.895 196.293 137.707C196.105 137.52 196 137.265 196 137C196 136.735 196.105 136.481 196.293 136.293C196.48 136.106 196.734 136 196.999 136C197.265 136 197.519 136.105 197.707 136.292C197.894 136.48 198 136.734 198 136.999C198 137.264 197.895 137.519 197.708 137.706C197.52 137.894 197.266 138 197.001 138H197Z" fill="#1379D4"/>
<path d="M211 138C210.735 138 210.481 137.895 210.293 137.707C210.105 137.52 210 137.265 210 137C210 136.735 210.105 136.481 210.293 136.293C210.48 136.106 210.734 136 210.999 136C211.265 136 211.519 136.105 211.707 136.292C211.894 136.48 212 136.734 212 136.999C212 137.264 211.895 137.519 211.708 137.706C211.52 137.894 211.266 138 211.001 138H211Z" fill="#1379D4"/>
<path d="M225 138C224.735 138 224.481 137.895 224.293 137.707C224.105 137.52 224 137.265 224 137C224 136.735 224.105 136.481 224.293 136.293C224.48 136.106 224.734 136 224.999 136C225.265 136 225.519 136.105 225.707 136.292C225.894 136.48 226 136.734 226 136.999C226 137.264 225.895 137.519 225.708 137.706C225.52 137.894 225.266 138 225.001 138H225Z" fill="#1379D4"/>
<path d="M239 138C238.735 138 238.481 137.895 238.293 137.707C238.105 137.52 238 137.265 238 137C238 136.735 238.105 136.481 238.293 136.293C238.48 136.106 238.734 136 238.999 136C239.265 136 239.519 136.105 239.707 136.292C239.894 136.48 240 136.734 240 136.999C240 137.264 239.895 137.519 239.708 137.706C239.52 137.894 239.266 138 239.001 138H239Z" fill="#1379D4"/>
<path d="M253 138C252.735 138 252.481 137.895 252.293 137.707C252.105 137.52 252 137.265 252 137C252 136.735 252.105 136.481 252.293 136.293C252.48 136.106 252.734 136 252.999 136C253.265 136 253.519 136.105 253.707 136.292C253.894 136.48 254 136.734 254 136.999C254 137.264 253.895 137.519 253.708 137.706C253.52 137.894 253.266 138 253.001 138H253Z" fill="#1379D4"/>
<path d="M267 138C266.735 138 266.48 137.895 266.293 137.707C266.105 137.52 266 137.265 266 137C266 136.735 266.105 136.481 266.293 136.293C266.48 136.106 266.734 136 267 136C267.265 136 267.519 136.105 267.707 136.292C267.894 136.48 268 136.734 268 136.999C268 137.264 267.895 137.519 267.708 137.706C267.52 137.894 267.266 138 267.001 138H267Z" fill="#1379D4"/>
<path d="M281 138C280.735 138 280.48 137.895 280.293 137.707C280.105 137.52 280 137.265 280 137C280 136.735 280.105 136.481 280.293 136.293C280.48 136.106 280.734 136 281 136C281.265 136 281.519 136.105 281.707 136.292C281.894 136.48 282 136.734 282 136.999C282 137.264 281.895 137.519 281.708 137.706C281.52 137.894 281.266 138 281.001 138H281Z" fill="#1379D4"/>
<path d="M295 138C294.735 138 294.48 137.895 294.293 137.707C294.105 137.52 294 137.265 294 137C294 136.735 294.105 136.481 294.293 136.293C294.48 136.106 294.734 136 295 136C295.265 136 295.519 136.105 295.707 136.292C295.894 136.48 296 136.734 296 136.999C296 137.264 295.895 137.519 295.708 137.706C295.52 137.894 295.266 138 295.001 138H295Z" fill="#1379D4"/>
<path d="M309 138C308.735 138 308.48 137.895 308.293 137.707C308.105 137.52 308 137.265 308 137C308 136.735 308.105 136.481 308.293 136.293C308.48 136.106 308.734 136 309 136C309.265 136 309.519 136.105 309.707 136.292C309.894 136.48 310 136.734 310 136.999C310 137.264 309.895 137.519 309.708 137.706C309.52 137.894 309.266 138 309.001 138H309Z" fill="#1379D4"/>
<path d="M323 138C322.735 138 322.48 137.895 322.293 137.707C322.105 137.52 322 137.265 322 137C322 136.735 322.105 136.481 322.293 136.293C322.48 136.106 322.734 136 323 136C323.265 136 323.519 136.105 323.707 136.292C323.894 136.48 324 136.734 324 136.999C324 137.264 323.895 137.519 323.708 137.706C323.52 137.894 323.266 138 323.001 138H323Z" fill="#1379D4"/>
<path d="M337 138C336.735 138 336.48 137.895 336.293 137.707C336.105 137.52 336 137.265 336 137C336 136.735 336.105 136.481 336.293 136.293C336.48 136.106 336.734 136 337 136C337.265 136 337.519 136.105 337.707 136.292C337.894 136.48 338 136.734 338 136.999C338 137.264 337.895 137.519 337.708 137.706C337.52 137.894 337.266 138 337.001 138H337Z" fill="#1379D4"/>
<path d="M351 138C350.735 138 350.48 137.895 350.293 137.707C350.105 137.52 350 137.265 350 137C350 136.735 350.105 136.481 350.293 136.293C350.48 136.106 350.734 136 351 136C351.265 136 351.519 136.105 351.707 136.292C351.894 136.48 352 136.734 352 136.999C352 137.264 351.895 137.519 351.708 137.706C351.52 137.894 351.266 138 351.001 138H351Z" fill="#1379D4"/>
<path d="M365 138C364.735 138 364.48 137.895 364.293 137.707C364.105 137.52 364 137.265 364 137C364 136.735 364.105 136.481 364.293 136.293C364.48 136.106 364.734 136 365 136C365.265 136 365.519 136.105 365.707 136.292C365.894 136.48 366 136.734 366 136.999C366 137.264 365.895 137.519 365.708 137.706C365.52 137.894 365.266 138 365.001 138H365Z" fill="#1379D4"/>
<path d="M379 138C378.735 138 378.48 137.895 378.293 137.707C378.105 137.52 378 137.265 378 137C378 136.735 378.105 136.481 378.293 136.293C378.48 136.106 378.734 136 379 136C379.265 136 379.519 136.105 379.707 136.292C379.894 136.48 380 136.734 380 136.999C380 137.264 379.895 137.519 379.708 137.706C379.52 137.894 379.266 138 379.001 138H379Z" fill="#1379D4"/>
<path d="M393 138C392.735 138 392.48 137.895 392.293 137.707C392.105 137.52 392 137.265 392 137C392 136.735 392.105 136.481 392.293 136.293C392.48 136.106 392.734 136 393 136C393.265 136 393.519 136.105 393.707 136.292C393.894 136.48 394 136.734 394 136.999C394 137.264 393.895 137.519 393.708 137.706C393.52 137.894 393.266 138 393.001 138H393Z" fill="#1379D4"/>
<path d="M407 138C406.735 138 406.48 137.895 406.293 137.707C406.105 137.52 406 137.265 406 137C406 136.735 406.105 136.481 406.293 136.293C406.48 136.106 406.734 136 407 136C407.265 136 407.519 136.105 407.707 136.292C407.894 136.48 408 136.734 408 136.999C408 137.264 407.895 137.519 407.708 137.706C407.52 137.894 407.266 138 407.001 138H407Z" fill="#1379D4"/>
<path d="M421 138C420.735 138 420.48 137.895 420.293 137.707C420.105 137.52 420 137.265 420 137C420 136.735 420.105 136.481 420.293 136.293C420.48 136.106 420.734 136 421 136C421.265 136 421.519 136.105 421.707 136.292C421.894 136.48 422 136.734 422 136.999C422 137.264 421.895 137.519 421.708 137.706C421.52 137.894 421.266 138 421.001 138H421Z" fill="#1379D4"/>
<path d="M435 138C434.735 138 434.48 137.895 434.293 137.707C434.105 137.52 434 137.265 434 137C434 136.735 434.105 136.481 434.293 136.293C434.48 136.106 434.734 136 435 136C435.265 136 435.519 136.105 435.707 136.292C435.894 136.48 436 136.734 436 136.999C436 137.264 435.895 137.519 435.708 137.706C435.52 137.894 435.266 138 435.001 138H435Z" fill="#1379D4"/>
<path d="M449 138C448.735 138 448.48 137.895 448.293 137.707C448.105 137.52 448 137.265 448 137C448 136.735 448.105 136.481 448.293 136.293C448.48 136.106 448.734 136 449 136C449.265 136 449.519 136.105 449.707 136.292C449.894 136.48 450 136.734 450 136.999C450 137.264 449.895 137.519 449.708 137.706C449.52 137.894 449.266 138 449.001 138H449Z" fill="#1379D4"/>
<path d="M463 138C462.735 138 462.48 137.895 462.293 137.707C462.105 137.52 462 137.265 462 137C462 136.735 462.105 136.481 462.293 136.293C462.48 136.106 462.734 136 463 136C463.265 136 463.519 136.105 463.707 136.292C463.894 136.48 464 136.734 464 136.999C464 137.264 463.895 137.519 463.708 137.706C463.52 137.894 463.266 138 463.001 138H463Z" fill="#1379D4"/>
<path d="M477 138C476.735 138 476.48 137.895 476.293 137.707C476.105 137.52 476 137.265 476 137C476 136.735 476.105 136.481 476.293 136.293C476.48 136.106 476.734 136 477 136C477.265 136 477.519 136.105 477.707 136.292C477.894 136.48 478 136.734 478 136.999C478 137.264 477.895 137.519 477.708 137.706C477.52 137.894 477.266 138 477.001 138H477Z" fill="#1379D4"/>
<path d="M491 138C490.735 138 490.48 137.895 490.293 137.707C490.105 137.52 490 137.265 490 137C490 136.735 490.105 136.481 490.293 136.293C490.48 136.106 490.734 136 491 136C491.265 136 491.519 136.105 491.707 136.292C491.894 136.48 492 136.734 492 136.999C492 137.264 491.895 137.519 491.708 137.706C491.52 137.894 491.266 138 491.001 138H491Z" fill="#1379D4"/>
<path d="M505 138C504.735 138 504.48 137.895 504.293 137.707C504.105 137.52 504 137.265 504 137C504 136.735 504.105 136.481 504.293 136.293C504.48 136.106 504.734 136 505 136C505.265 136 505.519 136.105 505.707 136.292C505.894 136.48 506 136.734 506 136.999C506 137.264 505.895 137.519 505.708 137.706C505.52 137.894 505.266 138 505.001 138H505Z" fill="#1379D4"/>
<path d="M519 138C518.735 138 518.48 137.895 518.293 137.707C518.105 137.52 518 137.265 518 137C518 136.735 518.105 136.481 518.293 136.293C518.48 136.106 518.734 136 519 136C519.265 136 519.519 136.105 519.707 136.292C519.894 136.48 520 136.734 520 136.999C520 137.264 519.895 137.519 519.708 137.706C519.52 137.894 519.265 138 519 138Z" fill="#1379D4"/>
<path d="M533 138C532.735 138 532.48 137.895 532.293 137.707C532.105 137.52 532 137.265 532 137C532 136.735 532.105 136.481 532.293 136.293C532.48 136.106 532.734 136 533 136C533.265 136 533.519 136.105 533.707 136.292C533.894 136.48 534 136.734 534 136.999C534 137.264 533.895 137.519 533.708 137.706C533.52 137.894 533.265 138 533 138Z" fill="#1379D4"/>
<path d="M547 138C546.735 138 546.48 137.895 546.293 137.707C546.105 137.52 546 137.265 546 137C546 136.735 546.105 136.481 546.293 136.293C546.48 136.106 546.734 136 547 136C547.265 136 547.519 136.105 547.707 136.292C547.894 136.48 548 136.734 548 136.999C548 137.264 547.895 137.519 547.708 137.706C547.52 137.894 547.265 138 547 138Z" fill="#1379D4"/>
<path d="M561 138C560.735 138 560.48 137.895 560.293 137.707C560.105 137.52 560 137.265 560 137C560 136.735 560.105 136.481 560.293 136.293C560.48 136.106 560.734 136 561 136C561.265 136 561.519 136.105 561.707 136.292C561.894 136.48 562 136.734 562 136.999C562 137.264 561.895 137.519 561.708 137.706C561.52 137.894 561.265 138 561 138Z" fill="#1379D4"/>
<path d="M575 138C574.735 138 574.48 137.895 574.293 137.707C574.105 137.52 574 137.265 574 137C574 136.735 574.105 136.481 574.293 136.293C574.48 136.106 574.734 136 575 136C575.265 136 575.519 136.105 575.707 136.292C575.894 136.48 576 136.734 576 136.999C576 137.264 575.895 137.519 575.708 137.706C575.52 137.894 575.265 138 575 138Z" fill="#1379D4"/>
<path d="M589 138C588.735 138 588.48 137.895 588.293 137.707C588.105 137.52 588 137.265 588 137C588 136.735 588.105 136.481 588.293 136.293C588.48 136.106 588.734 136 589 136C589.265 136 589.519 136.105 589.707 136.292C589.894 136.48 590 136.734 590 136.999C590 137.264 589.895 137.519 589.708 137.706C589.52 137.894 589.265 138 589 138Z" fill="#1379D4"/>
<path d="M603 138C602.735 138 602.48 137.895 602.293 137.707C602.105 137.52 602 137.265 602 137C602 136.735 602.105 136.481 602.293 136.293C602.48 136.106 602.734 136 603 136C603.265 136 603.519 136.105 603.707 136.292C603.894 136.48 604 136.734 604 136.999C604 137.264 603.895 137.519 603.708 137.706C603.52 137.894 603.265 138 603 138Z" fill="#1379D4"/>
<path d="M617 138C616.735 138 616.48 137.895 616.293 137.707C616.105 137.52 616 137.265 616 137C616 136.735 616.105 136.481 616.293 136.293C616.48 136.106 616.734 136 617 136C617.265 136 617.519 136.105 617.707 136.292C617.894 136.48 618 136.734 618 136.999C618 137.264 617.895 137.519 617.708 137.706C617.52 137.894 617.265 138 617 138Z" fill="#1379D4"/>
<path d="M631 138C630.735 138 630.48 137.895 630.293 137.707C630.105 137.52 630 137.265 630 137C630 136.735 630.105 136.481 630.293 136.293C630.48 136.106 630.734 136 631 136C631.265 136 631.519 136.105 631.707 136.292C631.894 136.48 632 136.734 632 136.999C632 137.264 631.895 137.519 631.708 137.706C631.52 137.894 631.265 138 631 138Z" fill="#1379D4"/>
<path d="M645 138C644.735 138 644.48 137.895 644.293 137.707C644.105 137.52 644 137.265 644 137C644 136.735 644.105 136.481 644.293 136.293C644.48 136.106 644.734 136 645 136C645.265 136 645.519 136.105 645.707 136.292C645.894 136.48 646 136.734 646 136.999C646 137.264 645.895 137.519 645.708 137.706C645.52 137.894 645.265 138 645 138Z" fill="#1379D4"/>
<path d="M659 138C658.735 138 658.48 137.895 658.293 137.707C658.105 137.52 658 137.265 658 137C658 136.735 658.105 136.481 658.293 136.293C658.48 136.106 658.734 136 659 136C659.265 136 659.519 136.105 659.707 136.292C659.894 136.48 660 136.734 660 136.999C660 137.264 659.895 137.519 659.708 137.706C659.52 137.894 659.265 138 659 138Z" fill="#1379D4"/>
<path d="M673 138C672.735 138 672.48 137.895 672.293 137.707C672.105 137.52 672 137.265 672 137C672 136.735 672.105 136.481 672.293 136.293C672.48 136.106 672.734 136 673 136C673.265 136 673.519 136.105 673.707 136.292C673.894 136.48 674 136.734 674 136.999C674 137.264 673.895 137.519 673.708 137.706C673.52 137.894 673.265 138 673 138Z" fill="#1379D4"/>
<path d="M686 138C685.735 138 685.48 137.895 685.293 137.707C685.105 137.52 685 137.265 685 137C685 136.735 685.105 136.481 685.293 136.293C685.48 136.106 685.734 136 686 136C686.265 136 686.519 136.105 686.707 136.292C686.894 136.48 687 136.734 687 136.999C687 137.264 686.895 137.519 686.708 137.706C686.52 137.894 686.265 138 686 138Z" fill="#1379D4"/>
<path d="M700 138C699.735 138 699.48 137.895 699.293 137.707C699.105 137.52 699 137.265 699 137C699 136.735 699.105 136.481 699.293 136.293C699.48 136.106 699.734 136 700 136C700.265 136 700.519 136.105 700.707 136.292C700.894 136.48 701 136.734 701 136.999C701 137.264 700.895 137.519 700.708 137.706C700.52 137.894 700.265 138 700 138Z" fill="#1379D4"/>
<path d="M714 138C713.735 138 713.48 137.895 713.293 137.707C713.105 137.52 713 137.265 713 137C713 136.735 713.105 136.481 713.293 136.293C713.48 136.106 713.734 136 714 136C714.265 136 714.519 136.105 714.707 136.292C714.894 136.48 715 136.734 715 136.999C715 137.264 714.895 137.519 714.708 137.706C714.52 137.894 714.265 138 714 138Z" fill="#1379D4"/>
<path d="M728 138C727.735 138 727.48 137.895 727.293 137.707C727.105 137.52 727 137.265 727 137C727 136.735 727.105 136.481 727.293 136.293C727.48 136.106 727.734 136 728 136C728.265 136 728.519 136.105 728.707 136.292C728.894 136.48 729 136.734 729 136.999C729 137.264 728.895 137.519 728.708 137.706C728.52 137.894 728.265 138 728 138Z" fill="#1379D4"/>
<path d="M742 138C741.735 138 741.48 137.895 741.293 137.707C741.105 137.52 741 137.265 741 137C741 136.735 741.105 136.481 741.293 136.293C741.48 136.106 741.734 136 742 136C742.265 136 742.519 136.105 742.707 136.292C742.894 136.48 743 136.734 743 136.999C743 137.264 742.895 137.519 742.708 137.706C742.52 137.894 742.265 138 742 138Z" fill="#1379D4"/>
<path d="M756 138C755.735 138 755.48 137.895 755.293 137.707C755.105 137.52 755 137.265 755 137C755 136.735 755.105 136.481 755.293 136.293C755.48 136.106 755.734 136 756 136C756.265 136 756.519 136.105 756.707 136.292C756.894 136.48 757 136.734 757 136.999C757 137.264 756.895 137.519 756.708 137.706C756.52 137.894 756.265 138 756 138Z" fill="#1379D4"/>
<path d="M770 138C769.735 138 769.48 137.895 769.293 137.707C769.105 137.52 769 137.265 769 137C769 136.735 769.105 136.481 769.293 136.293C769.48 136.106 769.734 136 770 136C770.265 136 770.519 136.105 770.707 136.292C770.894 136.48 771 136.734 771 136.999C771 137.264 770.895 137.519 770.708 137.706C770.52 137.894 770.265 138 770 138Z" fill="#1379D4"/>
<path d="M784 138C783.735 138 783.48 137.895 783.293 137.707C783.105 137.52 783 137.265 783 137C783 136.735 783.105 136.481 783.293 136.293C783.48 136.106 783.734 136 784 136C784.265 136 784.519 136.105 784.707 136.292C784.894 136.48 785 136.734 785 136.999C785 137.264 784.895 137.519 784.708 137.706C784.52 137.894 784.265 138 784 138Z" fill="#1379D4"/>
<path d="M798 138C797.735 138 797.48 137.895 797.293 137.707C797.105 137.52 797 137.265 797 137C797 136.735 797.105 136.481 797.293 136.293C797.48 136.106 797.734 136 798 136C798.265 136 798.519 136.105 798.707 136.292C798.894 136.48 799 136.734 799 136.999C799 137.264 798.895 137.519 798.708 137.706C798.52 137.894 798.265 138 798 138Z" fill="#1379D4"/>
<path d="M812 138C811.735 138 811.48 137.895 811.293 137.707C811.105 137.52 811 137.265 811 137C811 136.735 811.105 136.481 811.293 136.293C811.48 136.106 811.734 136 812 136C812.265 136 812.519 136.105 812.707 136.292C812.894 136.48 813 136.734 813 136.999C813 137.264 812.895 137.519 812.708 137.706C812.52 137.894 812.265 138 812 138Z" fill="#1379D4"/>
<path d="M826 138C825.735 138 825.48 137.895 825.293 137.707C825.105 137.52 825 137.265 825 137C825 136.735 825.105 136.481 825.293 136.293C825.48 136.106 825.734 136 826 136C826.265 136 826.519 136.105 826.707 136.292C826.894 136.48 827 136.734 827 136.999C827 137.264 826.895 137.519 826.708 137.706C826.52 137.894 826.265 138 826 138Z" fill="#1379D4"/>
<path d="M840 138C839.735 138 839.48 137.895 839.293 137.707C839.105 137.52 839 137.265 839 137C839 136.735 839.105 136.481 839.293 136.293C839.48 136.106 839.734 136 840 136C840.265 136 840.519 136.105 840.707 136.292C840.894 136.48 841 136.734 841 136.999C841 137.264 840.895 137.519 840.708 137.706C840.52 137.894 840.265 138 840 138Z" fill="#1379D4"/>
<path d="M854 138C853.735 138 853.48 137.895 853.293 137.707C853.105 137.52 853 137.265 853 137C853 136.735 853.105 136.481 853.293 136.293C853.48 136.106 853.734 136 854 136C854.265 136 854.519 136.105 854.707 136.292C854.894 136.48 855 136.734 855 136.999C855 137.264 854.895 137.519 854.708 137.706C854.52 137.894 854.265 138 854 138Z" fill="#1379D4"/>
<path d="M868 138C867.735 138 867.48 137.895 867.293 137.707C867.105 137.52 867 137.265 867 137C867 136.735 867.105 136.481 867.293 136.293C867.48 136.106 867.734 136 868 136C868.265 136 868.519 136.105 868.707 136.292C868.894 136.48 869 136.734 869 136.999C869 137.264 868.895 137.519 868.708 137.706C868.52 137.894 868.265 138 868 138Z" fill="#1379D4"/>
<path d="M882 138C881.735 138 881.48 137.895 881.293 137.707C881.105 137.52 881 137.265 881 137C881 136.735 881.105 136.481 881.293 136.293C881.48 136.106 881.734 136 882 136C882.265 136 882.519 136.105 882.707 136.292C882.894 136.48 883 136.734 883 136.999C883 137.264 882.895 137.519 882.708 137.706C882.52 137.894 882.265 138 882 138Z" fill="#1379D4"/>
<path d="M896 138C895.735 138 895.48 137.895 895.293 137.707C895.105 137.52 895 137.265 895 137C895 136.735 895.105 136.481 895.293 136.293C895.48 136.106 895.734 136 896 136C896.265 136 896.519 136.105 896.707 136.292C896.894 136.48 897 136.734 897 136.999C897 137.264 896.895 137.519 896.708 137.706C896.52 137.894 896.265 138 896 138Z" fill="#1379D4"/>
<path d="M910 138C909.735 138 909.48 137.895 909.293 137.707C909.105 137.52 909 137.265 909 137C909 136.735 909.105 136.481 909.293 136.293C909.48 136.106 909.734 136 910 136C910.265 136 910.519 136.105 910.707 136.292C910.894 136.48 911 136.734 911 136.999C911 137.264 910.895 137.519 910.708 137.706C910.52 137.894 910.265 138 910 138Z" fill="#1379D4"/>
<path d="M924 138C923.735 138 923.48 137.895 923.293 137.707C923.105 137.52 923 137.265 923 137C923 136.735 923.105 136.481 923.293 136.293C923.48 136.106 923.734 136 924 136C924.265 136 924.519 136.105 924.707 136.292C924.894 136.48 925 136.734 925 136.999C925 137.264 924.895 137.519 924.708 137.706C924.52 137.894 924.265 138 924 138Z" fill="#1379D4"/>
<path d="M938 138C937.735 138 937.48 137.895 937.293 137.707C937.105 137.52 937 137.265 937 137C937 136.735 937.105 136.481 937.293 136.293C937.48 136.106 937.734 136 938 136C938.265 136 938.519 136.105 938.707 136.292C938.894 136.48 939 136.734 939 136.999C939 137.264 938.895 137.519 938.708 137.706C938.52 137.894 938.265 138 938 138Z" fill="#1379D4"/>
<path d="M952 138C951.735 138 951.48 137.895 951.293 137.707C951.105 137.52 951 137.265 951 137C951 136.735 951.105 136.481 951.293 136.293C951.48 136.106 951.734 136 952 136C952.265 136 952.519 136.105 952.707 136.292C952.894 136.48 953 136.734 953 136.999C953 137.264 952.895 137.519 952.708 137.706C952.52 137.894 952.265 138 952 138Z" fill="#1379D4"/>
<path d="M966 138C965.735 138 965.48 137.895 965.293 137.707C965.105 137.52 965 137.265 965 137C965 136.735 965.105 136.481 965.293 136.293C965.48 136.106 965.734 136 966 136C966.265 136 966.519 136.105 966.707 136.292C966.894 136.48 967 136.734 967 136.999C967 137.264 966.895 137.519 966.708 137.706C966.52 137.894 966.265 138 966 138Z" fill="#1379D4"/>
<path d="M980 138C979.735 138 979.48 137.895 979.293 137.707C979.105 137.52 979 137.265 979 137C979 136.735 979.105 136.481 979.293 136.293C979.48 136.106 979.734 136 980 136C980.265 136 980.519 136.105 980.707 136.292C980.894 136.48 981 136.734 981 136.999C981 137.264 980.895 137.519 980.708 137.706C980.52 137.894 980.265 138 980 138Z" fill="#1379D4"/>
<path d="M994 138C993.735 138 993.48 137.895 993.293 137.707C993.105 137.52 993 137.265 993 137C993 136.735 993.105 136.481 993.293 136.293C993.48 136.106 993.734 136 994 136C994.265 136 994.519 136.105 994.707 136.292C994.894 136.48 995 136.734 995 136.999C995 137.264 994.895 137.519 994.708 137.706C994.52 137.894 994.265 138 994 138Z" fill="#1379D4"/>
<path d="M1008 138C1007.73 138 1007.48 137.895 1007.29 137.707C1007.11 137.52 1007 137.265 1007 137C1007 136.735 1007.11 136.481 1007.29 136.293C1007.48 136.106 1007.73 136 1008 136C1008.26 136 1008.52 136.105 1008.71 136.292C1008.89 136.48 1009 136.734 1009 136.999C1009 137.264 1008.9 137.519 1008.71 137.706C1008.52 137.894 1008.27 138 1008 138Z" fill="#1379D4"/>
<path d="M1022 138C1021.73 138 1021.48 137.895 1021.29 137.707C1021.11 137.52 1021 137.265 1021 137C1021 136.735 1021.11 136.481 1021.29 136.293C1021.48 136.106 1021.73 136 1022 136C1022.26 136 1022.52 136.105 1022.71 136.292C1022.89 136.48 1023 136.734 1023 136.999C1023 137.264 1022.9 137.519 1022.71 137.706C1022.52 137.894 1022.27 138 1022 138Z" fill="#1379D4"/>
<path d="M1036 138C1035.73 138 1035.48 137.895 1035.29 137.707C1035.11 137.52 1035 137.265 1035 137C1035 136.735 1035.11 136.481 1035.29 136.293C1035.48 136.106 1035.73 136 1036 136C1036.26 136 1036.52 136.105 1036.71 136.292C1036.89 136.48 1037 136.734 1037 136.999C1037 137.264 1036.9 137.519 1036.71 137.706C1036.52 137.894 1036.27 138 1036 138Z" fill="#1379D4"/>
<path d="M1050 138C1049.73 138 1049.48 137.895 1049.29 137.707C1049.11 137.52 1049 137.265 1049 137C1049 136.735 1049.11 136.481 1049.29 136.293C1049.48 136.106 1049.73 136 1050 136C1050.26 136 1050.52 136.105 1050.71 136.292C1050.89 136.48 1051 136.734 1051 136.999C1051 137.264 1050.9 137.519 1050.71 137.706C1050.52 137.894 1050.27 138 1050 138Z" fill="#1379D4"/>
<path d="M1064 138C1063.73 138 1063.48 137.895 1063.29 137.707C1063.11 137.52 1063 137.265 1063 137C1063 136.735 1063.11 136.481 1063.29 136.293C1063.48 136.106 1063.73 136 1064 136C1064.26 136 1064.52 136.105 1064.71 136.292C1064.89 136.48 1065 136.734 1065 136.999C1065 137.264 1064.9 137.519 1064.71 137.706C1064.52 137.894 1064.27 138 1064 138Z" fill="#1379D4"/>
<path d="M1078 138C1077.73 138 1077.48 137.895 1077.29 137.707C1077.11 137.52 1077 137.265 1077 137C1077 136.735 1077.11 136.481 1077.29 136.293C1077.48 136.106 1077.73 136 1078 136C1078.26 136 1078.52 136.105 1078.71 136.292C1078.89 136.48 1079 136.734 1079 136.999C1079 137.264 1078.9 137.519 1078.71 137.706C1078.52 137.894 1078.27 138 1078 138Z" fill="#1379D4"/>
<path d="M1092 138C1091.73 138 1091.48 137.895 1091.29 137.707C1091.11 137.52 1091 137.265 1091 137C1091 136.735 1091.11 136.481 1091.29 136.293C1091.48 136.106 1091.73 136 1092 136C1092.26 136 1092.52 136.105 1092.71 136.292C1092.89 136.48 1093 136.734 1093 136.999C1093 137.264 1092.9 137.519 1092.71 137.706C1092.52 137.894 1092.27 138 1092 138Z" fill="#1379D4"/>
<path d="M1106 138C1105.73 138 1105.48 137.895 1105.29 137.707C1105.11 137.52 1105 137.265 1105 137C1105 136.735 1105.11 136.481 1105.29 136.293C1105.48 136.106 1105.73 136 1106 136C1106.26 136 1106.52 136.105 1106.71 136.292C1106.89 136.48 1107 136.734 1107 136.999C1107 137.264 1106.9 137.519 1106.71 137.706C1106.52 137.894 1106.27 138 1106 138Z" fill="#1379D4"/>
<path d="M1120 138C1119.73 138 1119.48 137.895 1119.29 137.707C1119.11 137.52 1119 137.265 1119 137C1119 136.735 1119.11 136.481 1119.29 136.293C1119.48 136.106 1119.73 136 1120 136C1120.26 136 1120.52 136.105 1120.71 136.292C1120.89 136.48 1121 136.734 1121 136.999C1121 137.264 1120.9 137.519 1120.71 137.706C1120.52 137.894 1120.27 138 1120 138Z" fill="#1379D4"/>
<path d="M1134 138C1133.73 138 1133.48 137.895 1133.29 137.707C1133.11 137.52 1133 137.265 1133 137C1133 136.735 1133.11 136.481 1133.29 136.293C1133.48 136.106 1133.73 136 1134 136C1134.26 136 1134.52 136.105 1134.71 136.292C1134.89 136.48 1135 136.734 1135 136.999C1135 137.264 1134.9 137.519 1134.71 137.706C1134.52 137.894 1134.27 138 1134 138Z" fill="#1379D4"/>
<path d="M1148 138C1147.73 138 1147.48 137.895 1147.29 137.707C1147.11 137.52 1147 137.265 1147 137C1147 136.735 1147.11 136.481 1147.29 136.293C1147.48 136.106 1147.73 136 1148 136C1148.26 136 1148.52 136.105 1148.71 136.292C1148.89 136.48 1149 136.734 1149 136.999C1149 137.264 1148.9 137.519 1148.71 137.706C1148.52 137.894 1148.27 138 1148 138Z" fill="#1379D4"/>
<path d="M1162 138C1161.73 138 1161.48 137.895 1161.29 137.707C1161.11 137.52 1161 137.265 1161 137C1161 136.735 1161.11 136.481 1161.29 136.293C1161.48 136.106 1161.73 136 1162 136C1162.26 136 1162.52 136.105 1162.71 136.292C1162.89 136.48 1163 136.734 1163 136.999C1163 137.264 1162.9 137.519 1162.71 137.706C1162.52 137.894 1162.27 138 1162 138Z" fill="#1379D4"/>
<path d="M1176 138C1175.73 138 1175.48 137.895 1175.29 137.707C1175.11 137.52 1175 137.265 1175 137C1175 136.735 1175.11 136.481 1175.29 136.293C1175.48 136.106 1175.73 136 1176 136C1176.26 136 1176.52 136.105 1176.71 136.292C1176.89 136.48 1177 136.734 1177 136.999C1177 137.264 1176.9 137.519 1176.71 137.706C1176.52 137.894 1176.27 138 1176 138Z" fill="#1379D4"/>
<path d="M1190 138C1189.73 138 1189.48 137.895 1189.29 137.707C1189.11 137.52 1189 137.265 1189 137C1189 136.735 1189.11 136.481 1189.29 136.293C1189.48 136.106 1189.73 136 1190 136C1190.26 136 1190.52 136.105 1190.71 136.292C1190.89 136.48 1191 136.734 1191 136.999C1191 137.264 1190.9 137.519 1190.71 137.706C1190.52 137.894 1190.27 138 1190 138Z" fill="#1379D4"/>
<path d="M1204 138C1203.73 138 1203.48 137.895 1203.29 137.707C1203.11 137.52 1203 137.265 1203 137C1203 136.735 1203.11 136.481 1203.29 136.293C1203.48 136.106 1203.73 136 1204 136C1204.26 136 1204.52 136.105 1204.71 136.292C1204.89 136.48 1205 136.734 1205 136.999C1205 137.264 1204.9 137.519 1204.71 137.706C1204.52 137.894 1204.27 138 1204 138Z" fill="#1379D4"/>
<path d="M1218 138C1217.73 138 1217.48 137.895 1217.29 137.707C1217.11 137.52 1217 137.265 1217 137C1217 136.735 1217.11 136.481 1217.29 136.293C1217.48 136.106 1217.73 136 1218 136C1218.26 136 1218.52 136.105 1218.71 136.292C1218.89 136.48 1219 136.734 1219 136.999C1219 137.264 1218.9 137.519 1218.71 137.706C1218.52 137.894 1218.27 138 1218 138Z" fill="#1379D4"/>
<path d="M1232 138C1231.73 138 1231.48 137.895 1231.29 137.707C1231.11 137.52 1231 137.265 1231 137C1231 136.735 1231.11 136.481 1231.29 136.293C1231.48 136.106 1231.73 136 1232 136C1232.26 136 1232.52 136.105 1232.71 136.292C1232.89 136.48 1233 136.734 1233 136.999C1233 137.264 1232.9 137.519 1232.71 137.706C1232.52 137.894 1232.27 138 1232 138Z" fill="#1379D4"/>
<path d="M1246 138C1245.73 138 1245.48 137.895 1245.29 137.707C1245.11 137.52 1245 137.265 1245 137C1245 136.735 1245.11 136.481 1245.29 136.293C1245.48 136.106 1245.73 136 1246 136C1246.26 136 1246.52 136.105 1246.71 136.292C1246.89 136.48 1247 136.734 1247 136.999C1247 137.264 1246.9 137.519 1246.71 137.706C1246.52 137.894 1246.27 138 1246 138Z" fill="#1379D4"/>
<path d="M1261 138C1260.73 138 1260.48 137.895 1260.29 137.707C1260.11 137.52 1260 137.265 1260 137C1260 136.735 1260.11 136.481 1260.29 136.293C1260.48 136.106 1260.73 136 1261 136C1261.26 136 1261.52 136.105 1261.71 136.292C1261.89 136.48 1262 136.734 1262 136.999C1262 137.264 1261.9 137.519 1261.71 137.706C1261.52 137.894 1261.27 138 1261 138Z" fill="#1379D4"/>
<defs>
<linearGradient id="paint0_linear_142_915" x1="1" y1="136.686" x2="1" y2="299" gradientUnits="userSpaceOnUse">
<stop stop-color="#1379D4" stop-opacity="0.1"/>
<stop offset="0.8" stop-color="#1379D4" stop-opacity="0.1"/>
<stop offset="1" stop-opacity="0"/>
</linearGradient>
</defs>
</svg>
