<svg width="17" height="17" viewBox="0 0 17 17" fill="none" xmlns="http://www.w3.org/2000/svg">
<path d="M8.64623 14.6489L4.62843 16.8635C4.14849 17.124 3.55199 16.9321 3.29831 16.4316C3.19546 16.2259 3.16118 15.9996 3.20232 15.7802L3.97023 11.1042L0.713477 7.7926C0.525006 7.59703 0.418567 7.33673 0.416017 7.06513C0.413467 6.79354 0.514999 6.53128 0.699764 6.33221C0.850603 6.17451 1.04258 6.06481 1.26198 6.03739L5.75287 5.35176L7.76177 1.10084C7.83513 0.926866 7.95817 0.778392 8.11549 0.673995C8.27281 0.569598 8.45743 0.513916 8.64623 0.513916C8.83504 0.513916 9.01966 0.569598 9.17698 0.673995C9.3343 0.778392 9.45734 0.926866 9.5307 1.10084L11.5396 5.35176L16.0305 6.03739C16.293 6.08598 16.5264 6.23477 16.6812 6.45228C16.836 6.6698 16.9002 6.93899 16.8601 7.20296C16.8327 7.42236 16.7298 7.63491 16.579 7.7926L13.3222 11.1042L14.0901 15.7802C14.1861 16.3356 13.8228 16.8704 13.288 16.9664C13.0823 17.0006 12.856 16.9664 12.6709 16.8635L8.64623 14.6489Z" fill="#F7A301"/>
</svg>
