<svg width="24" height="20" viewBox="0 0 24 20" fill="none" xmlns="http://www.w3.org/2000/svg">
<path d="M12.2601 13.3333C12.003 13.3302 11.7577 13.2403 11.5776 13.0833L6.70267 8.91667C6.59092 8.84503 6.49849 8.75371 6.43162 8.64888C6.36476 8.54405 6.32503 8.42817 6.31513 8.30907C6.30523 8.18998 6.32538 8.07046 6.37423 7.9586C6.42307 7.84675 6.49947 7.74517 6.59825 7.66074C6.69702 7.57632 6.81587 7.51102 6.94674 7.46927C7.07761 7.42753 7.21745 7.4103 7.35679 7.41876C7.49612 7.42723 7.63171 7.46118 7.75436 7.51833C7.877 7.57548 7.98385 7.65449 8.06767 7.75L12.2601 11.3167L16.4526 7.73333C16.5408 7.64667 16.6489 7.57652 16.7703 7.52727C16.8916 7.47802 17.0236 7.45074 17.1579 7.44714C17.2922 7.44354 17.4259 7.4637 17.5506 7.50635C17.6753 7.549 17.7884 7.61323 17.8827 7.695C17.9771 7.77677 18.0506 7.87432 18.0987 7.98153C18.1469 8.08873 18.1685 8.20328 18.1624 8.31799C18.1563 8.4327 18.1225 8.5451 18.0632 8.64812C18.0038 8.75114 17.9202 8.84257 17.8176 8.91667L12.9426 13.0833C12.7626 13.2403 12.5173 13.3302 12.2601 13.3333Z" fill="#0E0E0F"/>
</svg>
