<svg width="44" height="40" viewBox="0 0 44 40" fill="none" xmlns="http://www.w3.org/2000/svg">
<rect width="44" height="40" fill="white"/>
<path d="M27.9167 24.3333C28.1156 24.3333 28.3064 24.4123 28.447 24.553C28.5877 24.6937 28.6667 24.8844 28.6667 25.0833C28.6667 25.2822 28.5877 25.473 28.447 25.6137C28.3064 25.7543 28.1156 25.8333 27.9167 25.8333H16.0834C15.8845 25.8333 15.6937 25.7543 15.553 25.6137C15.4124 25.473 15.3334 25.2822 15.3334 25.0833C15.3334 24.8844 15.4124 24.6937 15.553 24.553C15.6937 24.4123 15.8845 24.3333 16.0834 24.3333H27.9167ZM27.9167 19.25C28.0152 19.25 28.1127 19.2694 28.2037 19.3071C28.2947 19.3448 28.3774 19.4 28.447 19.4697C28.5167 19.5393 28.5719 19.622 28.6096 19.713C28.6473 19.804 28.6667 19.9015 28.6667 20C28.6667 20.0985 28.6473 20.196 28.6096 20.287C28.5719 20.378 28.5167 20.4607 28.447 20.5303C28.3774 20.6 28.2947 20.6552 28.2037 20.6929C28.1127 20.7306 28.0152 20.75 27.9167 20.75H16.0834C15.9849 20.75 15.8874 20.7306 15.7964 20.6929C15.7054 20.6552 15.6227 20.6 15.553 20.5303C15.4834 20.4607 15.4282 20.378 15.3905 20.287C15.3528 20.196 15.3334 20.0985 15.3334 20C15.3334 19.9015 15.3528 19.804 15.3905 19.713C15.4282 19.622 15.4834 19.5393 15.553 19.4697C15.6227 19.4 15.7054 19.3448 15.7964 19.3071C15.8874 19.2694 15.9849 19.25 16.0834 19.25H27.9167ZM27.9167 14.1667C28.1156 14.1667 28.3064 14.2457 28.447 14.3863C28.5877 14.527 28.6667 14.7178 28.6667 14.9167C28.6667 15.1156 28.5877 15.3063 28.447 15.447C28.3064 15.5876 28.1156 15.6667 27.9167 15.6667H16.0834C15.8845 15.6667 15.6937 15.5876 15.553 15.447C15.4124 15.3063 15.3334 15.1156 15.3334 14.9167C15.3334 14.7178 15.4124 14.527 15.553 14.3863C15.6937 14.2457 15.8845 14.1667 16.0834 14.1667H27.9167Z" fill="#0E0E0F"/>
</svg>
