<svg width="40" height="40" viewBox="0 0 40 40" fill="none" xmlns="http://www.w3.org/2000/svg">
<rect width="40" height="40" fill="white"/>
<path d="M23.7 11C22.3 11 21.1 11.4 20 12.2C18.7806 11.2842 17.2623 10.8584 15.7445 11.0065C14.2267 11.1545 12.8194 11.8658 11.8 13C10.6886 14.2748 10.0764 15.9088 10.0764 17.6C10.0764 19.2912 10.6886 20.9252 11.8 22.2C12.5 23.2 13.3 23.9 14.7 25.2L17.5 27.6L18.3 28.3C18.8 28.8 19.3 29 20 29C20.6 29 21.2 28.8 21.7 28.4C23.7 26.7 27 23.7 28.3 22.2C29.3976 20.9132 29.9921 19.2725 29.9738 17.5813C29.9554 15.89 29.3253 14.2627 28.2 13C27.6263 12.3769 26.931 11.878 26.1571 11.5341C25.3831 11.1901 24.5469 11.0083 23.7 11ZM23.7 12.8C24.8 12.8 26 13.3 26.9 14.2C27.7575 15.1246 28.2339 16.339 28.2339 17.6C28.2339 18.861 27.7575 20.0754 26.9 21C24.7103 23.1863 22.4072 25.2558 20 27.2L19.4 27L18.6 26.3L16 23.8C14.6 22.6 14 21.8 13.2 21C12.3425 20.0754 11.8661 18.861 11.8661 17.6C11.8661 16.339 12.3425 15.1246 13.2 14.2C13.6201 13.7614 14.1245 13.4123 14.6831 13.1739C15.2416 12.9354 15.8427 12.8125 16.45 12.8125C17.0573 12.8125 17.6583 12.9354 18.2169 13.1739C18.7754 13.4123 19.2799 13.7614 19.7 14.2L20.1 14.7L20.5 14.2C21.5 13.3 22.5 12.8 23.8 12.8" fill="black"/>
</svg>
