<svg width="20" height="20" viewBox="0 0 20 20" fill="none" xmlns="http://www.w3.org/2000/svg">
<path d="M16.75 16H16.3333C16.1565 16 15.987 16.0702 15.8619 16.1953C15.7369 16.3203 15.6667 16.4899 15.6667 16.6667C15.6667 16.8435 15.7369 17.013 15.8619 17.1381C15.987 17.2631 16.1565 17.3333 16.3333 17.3333H16.75C16.9268 17.3333 17.0964 17.2631 17.2214 17.1381C17.3464 17.013 17.4167 16.8435 17.4167 16.6667C17.4167 16.4899 17.3464 16.3203 17.2214 16.1953C17.0964 16.0702 16.9268 16 16.75 16ZM13.9167 16H9.41667C9.23986 16 9.07029 16.0702 8.94526 16.1953C8.82024 16.3203 8.75 16.4899 8.75 16.6667C8.75 16.8435 8.82024 17.013 8.94526 17.1381C9.07029 17.2631 9.23986 17.3333 9.41667 17.3333H13.9167C14.0935 17.3333 14.263 17.2631 14.3881 17.1381C14.5131 17.013 14.5833 16.8435 14.5833 16.6667C14.5833 16.4899 14.5131 16.3203 14.3881 16.1953C14.263 16.0702 14.0935 16 13.9167 16ZM17.5 5.75C17.5 5.5 17.5 5.33333 17.3333 5.25L15.1667 3.16667C14.5833 2.5 13.5833 2.5 13 3.16667L3.16667 13C2.75 13.4167 2.5 14 2.5 14.5833V16.6667C2.5 17 2.83333 17.3333 3.16667 17.3333H5.33333C5.83333 17.3333 6.41667 17.0833 6.75 16.75L13.3333 10.1667C13.4115 10.039 13.4444 9.88873 13.4268 9.74008C13.4092 9.59142 13.342 9.45302 13.2362 9.34717C13.1303 9.24132 12.9919 9.17417 12.8433 9.15654C12.6946 9.13892 12.5443 9.17184 12.4167 9.25L5.75 15.75C5.75 15.9167 5.5 16 5.33333 16H3.83333V14.5833C3.83333 14.3333 3.91667 14.0833 4.08333 13.9167L13.9167 4.16667C14 4.08333 14.1667 4.08333 14.25 4.16667L15.9167 5.83333L14.75 6.91667L14.4167 6.58333C14.3709 6.49464 14.3058 6.41737 14.2261 6.3572C14.1465 6.29703 14.0544 6.25552 13.9566 6.23571C13.8587 6.2159 13.7577 6.21831 13.661 6.24276C13.5642 6.26721 13.4741 6.31307 13.3975 6.37697C13.3208 6.44086 13.2595 6.52116 13.218 6.61193C13.1765 6.7027 13.1559 6.80163 13.1577 6.90142C13.1596 7.00121 13.1838 7.09931 13.2286 7.18849C13.2734 7.27767 13.3377 7.35565 13.4167 7.41667L14.25 8.33333C14.5833 8.58333 15 8.58333 15.25 8.33333L17.3333 6.25L17.5 5.83333" fill="#0E0E0F"/>
</svg>
