<svg width="20" height="20" viewBox="0 0 20 20" fill="none" xmlns="http://www.w3.org/2000/svg">
<path d="M7.16941 14.5H4.03675C3.88012 14.3333 3.88012 14.0833 3.88012 13.9167C3.88012 12.9167 5.60308 10.75 5.60308 10.75C5.60308 10.75 7.32604 12.9167 7.32604 13.9167C7.32604 14.0833 7.32604 14.3333 7.16941 14.5ZM5.60308 9.41667C5.2115 9.41667 4.81992 9.58333 4.66329 9.83333C3.88012 10.8333 2.62706 12.5833 2.62706 13.9167C2.62706 14.7565 2.9406 15.562 3.49872 16.1558C4.05683 16.7497 4.81379 17.0833 5.60308 17.0833C6.39237 17.0833 7.14934 16.7497 7.70745 16.1558C8.26556 15.562 8.57911 14.7565 8.57911 13.9167C8.57911 12.5 7.32604 10.8333 6.54288 9.83333C6.30793 9.58333 5.99467 9.41667 5.60308 9.41667ZM5.60308 7.91667H5.75972L14.0613 4.16667C14.1613 4.07403 14.2312 3.94999 14.2607 3.81242C14.2903 3.67485 14.2781 3.53084 14.2259 3.40113C14.1736 3.27141 14.084 3.16269 13.97 3.0906C13.856 3.01852 13.7234 2.98679 13.5914 3L5.28982 6.66667C5.17182 6.73443 5.07736 6.8407 5.02034 6.96984C4.96331 7.09897 4.94673 7.24417 4.97303 7.38408C4.99933 7.52399 5.06712 7.65124 5.16643 7.7471C5.26575 7.84297 5.39135 7.9024 5.52477 7.91667M15.3926 10.8333H12.025V10.3333C12.025 9.33333 13.6697 7.08333 13.6697 7.08333C13.6697 7.08333 15.3926 9.33333 15.3926 10.3333L15.3143 10.8333M14.6095 6.25C14.4919 6.10812 14.3473 5.9945 14.1852 5.91667C14.0232 5.83884 13.8475 5.79858 13.6697 5.79858C13.4919 5.79858 13.3162 5.83884 13.1541 5.91667C12.9921 5.9945 12.8475 6.10812 12.7299 6.25C11.9467 7.25 10.6937 9 10.6937 10.3333C10.6937 11.1732 11.0072 11.9786 11.5653 12.5725C12.1234 13.1664 12.8804 13.5 13.6697 13.5C14.459 13.5 15.2159 13.1664 15.774 12.5725C16.3322 11.9786 16.6457 11.1732 16.6457 10.3333C16.6457 9 15.3926 7.25 14.6095 6.25Z" fill="#0E0E0F"/>
</svg>
