<svg width="32" height="30" viewBox="0 0 32 30" fill="none" xmlns="http://www.w3.org/2000/svg">
<rect width="31" height="30" transform="translate(0.939941)" fill="white"/>
<path d="M17.9399 19C17.6762 18.9962 17.4246 18.8884 17.2399 18.7L12.2399 13.7C12.1253 13.614 12.0305 13.5044 11.9619 13.3787C11.8934 13.2529 11.8526 13.1138 11.8424 12.9709C11.8323 12.828 11.853 12.6846 11.9031 12.5503C11.9532 12.4161 12.0315 12.2942 12.1328 12.1929C12.2341 12.0916 12.356 12.0132 12.4903 11.9631C12.6245 11.913 12.7679 11.8924 12.9108 11.9025C13.0537 11.9127 13.1928 11.9534 13.3186 12.022C13.4444 12.0906 13.554 12.1854 13.6399 12.3L17.9399 16.58L22.2399 12.28C22.3303 12.176 22.4413 12.0918 22.5657 12.0327C22.6902 11.9736 22.8256 11.9409 22.9633 11.9366C23.101 11.9322 23.2381 11.9564 23.3661 12.0076C23.494 12.0588 23.61 12.1359 23.7067 12.234C23.8035 12.3321 23.8789 12.4492 23.9283 12.5778C23.9776 12.7065 23.9999 12.8439 23.9936 12.9816C23.9873 13.1192 23.9527 13.2541 23.8918 13.3777C23.8309 13.5014 23.7452 13.6111 23.6399 13.7L18.6399 18.7C18.4553 18.8884 18.2037 18.9962 17.9399 19Z" fill="#0E0E0F"/>
</svg>
