<svg width="20" height="21" viewBox="0 0 20 21" fill="none" xmlns="http://www.w3.org/2000/svg">
<path d="M2.5 8.81135C2.50164 7.98108 2.66644 7.15925 2.98498 6.39281C3.30352 5.62636 3.76956 4.9303 4.35651 4.34437C4.94345 3.75844 5.6398 3.29411 6.40579 2.9779C7.17178 2.66168 7.99241 2.49978 8.82083 2.50142C9.64926 2.50307 10.4692 2.66823 11.234 2.98749C11.9987 3.30674 12.6932 3.77383 13.2778 4.36209C13.8625 4.95034 14.3258 5.64825 14.6413 6.41596C14.9568 7.18366 15.1183 8.00613 15.1167 8.83641C15.1134 10.5132 14.4455 12.1201 13.2602 13.3034C12.0748 14.4867 10.4689 15.1497 8.79583 15.1463C7.12276 15.143 5.51953 14.4737 4.33883 13.2857C3.15813 12.0976 2.49668 10.4882 2.5 8.81135ZM18.9167 17.7897L14.9667 13.8643C15.7799 12.8738 16.3432 11.7016 16.6092 10.4468C16.8752 9.19208 16.8359 7.8916 16.4947 6.65526C16.1535 5.41892 15.5205 4.28305 14.649 3.34358C13.7775 2.40412 12.6933 1.68868 11.4878 1.25769C10.2823 0.826709 8.99101 0.692842 7.72303 0.867404C6.45504 1.04197 5.24761 1.51983 4.20272 2.26062C3.15783 3.00141 2.30619 3.98337 1.71974 5.12354C1.13329 6.26372 0.829259 7.52861 0.833333 8.81135C0.837961 10.3141 1.26518 11.7851 2.06597 13.0555C2.86676 14.326 4.00869 15.3445 5.36073 15.9941C6.71276 16.6437 8.22014 16.8982 9.70991 16.7283C11.1997 16.5584 12.6115 15.971 13.7833 15.0336L17.75 18.9674C17.9104 19.1032 18.116 19.1733 18.3257 19.1637C18.5354 19.1541 18.7338 19.0655 18.8812 18.9157C19.0286 18.7659 19.1141 18.5658 19.1207 18.3555C19.1273 18.1452 19.0544 17.9402 18.9167 17.7814" fill="#0E0E0F"/>
</svg>
