<svg width="17" height="17" viewBox="0 0 17 17" fill="none" xmlns="http://www.w3.org/2000/svg">
<path d="M8.32789 14.6489L4.31009 16.8635C3.83015 17.124 3.23365 16.9321 2.97996 16.4316C2.87712 16.2259 2.84284 15.9996 2.88398 15.7802L3.65188 11.1042L0.395133 7.7926C0.206662 7.59703 0.100223 7.33673 0.0976726 7.06513C0.0951225 6.79354 0.196655 6.53128 0.38142 6.33221C0.532259 6.17451 0.724236 6.06481 0.943638 6.03739L5.43452 5.35176L7.44343 1.10084C7.51679 0.926866 7.63982 0.778392 7.79715 0.673995C7.95447 0.569598 8.13908 0.513916 8.32789 0.513916C8.5167 0.513916 8.70131 0.569598 8.85863 0.673995C9.01596 0.778392 9.13899 0.926866 9.21235 1.10084L11.2213 5.35176L15.7121 6.03739C15.9747 6.08598 16.208 6.23477 16.3628 6.45228C16.5177 6.6698 16.5818 6.93899 16.5418 7.20296C16.5143 7.42236 16.4115 7.63491 16.2606 7.7926L13.0039 11.1042L13.7718 15.7802C13.8678 16.3356 13.5044 16.8704 12.9696 16.9664C12.7639 17.0006 12.5377 16.9664 12.3525 16.8635L8.32789 14.6489Z" fill="#F7A301"/>
</svg>
