<svg width="50" height="51" viewBox="0 0 50 51" fill="none" xmlns="http://www.w3.org/2000/svg">
<path d="M25 43.9167L12.7917 50.6458C11.3333 51.4375 9.52083 50.8542 8.75 49.3333C8.4375 48.7083 8.33333 48.0208 8.45833 47.3542L10.7917 33.1458L0.89583 23.0833C0.32315 22.4891 -0.000272139 21.6981 -0.00802094 20.8729C-0.0157697 20.0476 0.292743 19.2507 0.854164 18.6458C1.3125 18.1667 1.89583 17.8333 2.5625 17.75L16.2083 15.6667L22.3125 2.75C22.5354 2.22137 22.9093 1.77022 23.3873 1.45301C23.8653 1.13579 24.4263 0.966599 25 0.966599C25.5737 0.966599 26.1347 1.13579 26.6127 1.45301C27.0907 1.77022 27.4646 2.22137 27.6875 2.75L33.7917 15.6667L47.4375 17.75C48.2352 17.8977 48.9442 18.3497 49.4147 19.0107C49.8851 19.6716 50.0801 20.4896 49.9583 21.2917C49.875 21.9583 49.5625 22.6042 49.1042 23.0833L39.2083 33.1458L41.5417 47.3542C41.8333 49.0417 40.7292 50.6667 39.1042 50.9583C38.4792 51.0625 37.7917 50.9583 37.2292 50.6458L25 43.9167Z" fill="#EBEFF5"/>
</svg>
