<svg width="21" height="21" viewBox="0 0 21 21" fill="none" xmlns="http://www.w3.org/2000/svg">
<rect width="16" height="16" transform="translate(2.2002 2.5)" fill="white"/>
<path d="M10.2002 15.8333C8.78571 15.8333 7.42916 15.2714 6.42896 14.2712C5.42877 13.271 4.86686 11.9145 4.86686 10.5C4.86686 9.08551 5.42877 7.72896 6.42896 6.72876C7.42916 5.72857 8.78571 5.16667 10.2002 5.16667C11.6147 5.16667 12.9712 5.72857 13.9714 6.72876C14.9716 7.72896 15.5335 9.08551 15.5335 10.5C15.5335 11.9145 14.9716 13.271 13.9714 14.2712C12.9712 15.2714 11.6147 15.8333 10.2002 15.8333ZM10.2002 3.83333C8.43209 3.83333 6.7364 4.53571 5.48615 5.78595C4.23591 7.0362 3.53353 8.73189 3.53353 10.5C3.53353 12.2681 4.23591 13.9638 5.48615 15.214C6.7364 16.4643 8.43209 17.1667 10.2002 17.1667C11.9683 17.1667 13.664 16.4643 14.9142 15.214C16.1645 13.9638 16.8669 12.2681 16.8669 10.5C16.8669 8.73189 16.1645 7.0362 14.9142 5.78595C13.664 4.53571 11.9683 3.83333 10.2002 3.83333ZM10.2002 7.16667C9.86686 7.16667 9.53353 7.5 9.53353 7.91667V8C9.53353 8.17681 9.60377 8.34638 9.72879 8.4714C9.85382 8.59643 10.0234 8.66667 10.2002 8.66667C10.377 8.66667 10.5466 8.59643 10.6716 8.4714C10.7966 8.34638 10.8669 8.17681 10.8669 8C10.8669 7.58333 10.5335 7.33333 10.2002 7.33333M10.2002 9.83333C9.86686 9.83333 9.53353 10.0833 9.53353 10.5V13C9.53353 13.1768 9.60377 13.3464 9.72879 13.4714C9.85382 13.5964 10.0234 13.6667 10.2002 13.6667C10.377 13.6667 10.5466 13.5964 10.6716 13.4714C10.7966 13.3464 10.8669 13.1768 10.8669 13V10.5C10.8669 10.0833 10.5335 9.83333 10.2002 9.83333Z" fill="#747A84"/>
</svg>
