<svg width="44" height="40" viewBox="0 0 44 40" fill="none" xmlns="http://www.w3.org/2000/svg">
<rect width="44" height="40" fill="white"/>
<path d="M19.5 14.5833C18.9806 14.5832 18.474 14.7449 18.0507 15.0458C17.6273 15.3467 17.3081 15.7719 17.1375 16.2625L17.0975 16.2558L17 16.25H15.3333C15.1209 16.2502 14.9166 16.3316 14.7622 16.4774C14.6077 16.6232 14.5148 16.8225 14.5023 17.0345C14.4899 17.2465 14.5589 17.4553 14.6952 17.6182C14.8315 17.7811 15.0249 17.8857 15.2358 17.9108L15.3333 17.9167H17C17.0475 17.9167 17.0933 17.9125 17.1383 17.905C17.3088 18.3956 17.6278 18.821 18.0511 19.1219C18.4744 19.4229 18.9809 19.5846 19.5003 19.5845C20.0197 19.5844 20.5261 19.4226 20.9493 19.1214C21.3725 18.8203 21.6914 18.3948 21.8617 17.9042L21.9033 17.9108L22 17.9167H28.6667C28.8791 17.9164 29.0834 17.8351 29.2378 17.6893C29.3922 17.5435 29.4852 17.3442 29.4976 17.1322C29.5101 16.9201 29.4411 16.7114 29.3048 16.5485C29.1684 16.3856 28.9751 16.2809 28.7642 16.2558L28.6667 16.25H22C21.9525 16.25 21.9067 16.2542 21.8617 16.2617C21.691 15.7713 21.3719 15.3463 20.9487 15.0455C20.5255 14.7448 20.0192 14.5832 19.5 14.5833ZM19.5 16.25C19.721 16.25 19.933 16.3378 20.0892 16.4941C20.2455 16.6504 20.3333 16.8623 20.3333 17.0833C20.3333 17.3043 20.2455 17.5163 20.0892 17.6726C19.933 17.8289 19.721 17.9167 19.5 17.9167C19.279 17.9167 19.067 17.8289 18.9107 17.6726C18.7545 17.5163 18.6667 17.3043 18.6667 17.0833C18.6667 16.8623 18.7545 16.6504 18.9107 16.4941C19.067 16.3378 19.279 16.25 19.5 16.25ZM24.5 20.4167C25.5933 20.4167 26.5225 21.1183 26.8617 22.0958L26.9033 22.0892L27 22.0833H28.6667C28.8791 22.0836 29.0834 22.1649 29.2378 22.3107C29.3922 22.4565 29.4852 22.6558 29.4976 22.8678C29.5101 23.0799 29.4411 23.2887 29.3048 23.4515C29.1684 23.6144 28.9751 23.7191 28.7642 23.7442L28.6667 23.75H27C26.9525 23.75 26.9067 23.7458 26.8617 23.7383C26.6912 24.2289 26.3722 24.6543 25.9489 24.9553C25.5256 25.2563 25.0191 25.4179 24.4997 25.4178C23.9803 25.4177 23.4739 25.2559 23.0507 24.9548C22.6275 24.6536 22.3086 24.2282 22.1383 23.7375L22.0967 23.7442L22 23.75H15.3333C15.1209 23.7498 14.9166 23.6684 14.7622 23.5226C14.6077 23.3768 14.5148 23.1775 14.5023 22.9655C14.4899 22.7535 14.5589 22.5447 14.6952 22.3818C14.8315 22.2189 15.0249 22.1143 15.2358 22.0892L15.3333 22.0833H22C22.0475 22.0833 22.0933 22.0875 22.1383 22.095C22.309 21.6047 22.628 21.1796 23.0512 20.8788C23.4745 20.5781 23.9808 20.4166 24.5 20.4167ZM24.5 22.0833C24.279 22.0833 24.067 22.1711 23.9107 22.3274C23.7545 22.4837 23.6667 22.6957 23.6667 22.9167C23.6667 23.1377 23.7545 23.3496 23.9107 23.5059C24.067 23.6622 24.279 23.75 24.5 23.75C24.721 23.75 24.933 23.6622 25.0892 23.5059C25.2455 23.3496 25.3333 23.1377 25.3333 22.9167C25.3333 22.6957 25.2455 22.4837 25.0892 22.3274C24.933 22.1711 24.721 22.0833 24.5 22.0833Z" fill="#0E0E0F"/>
</svg>
