<svg width="48" height="48" viewBox="0 0 48 48" fill="none" xmlns="http://www.w3.org/2000/svg">
<rect width="46.9411" height="46.9411" transform="translate(0.499588 0.388149)" fill="white"/>
<path d="M28.3122 13.2968C26.6692 13.2968 25.261 13.7662 23.9701 14.705C22.5391 13.6303 20.7574 13.1306 18.9762 13.3044C17.195 13.4782 15.5435 14.3128 14.3472 15.6439C13.043 17.1398 12.3245 19.0574 12.3245 21.0421C12.3245 23.0268 13.043 24.9443 14.3472 26.4403C15.1687 27.6138 16.1075 28.4353 17.7504 29.9609L21.0363 32.7774L21.9751 33.5988C22.5619 34.1856 23.1487 34.4203 23.9701 34.4203C24.6742 34.4203 25.3784 34.1856 25.9651 33.7162C28.3122 31.7212 32.1848 28.2006 33.7104 26.4403C34.9984 24.9302 35.6962 23.0048 35.6746 21.0201C35.653 19.0354 34.9136 17.1256 33.593 15.6439C32.9198 14.9127 32.1039 14.3272 31.1956 13.9235C30.2874 13.5199 29.306 13.3066 28.3122 13.2968ZM28.3122 15.4092C29.6031 15.4092 31.0113 15.9959 32.0675 17.0521C33.0737 18.1371 33.6329 19.5623 33.6329 21.0421C33.6329 22.5219 33.0737 23.9471 32.0675 25.0321C29.4978 27.5977 26.795 30.0264 23.9701 32.3079L23.266 32.0732L22.3272 31.2518L19.276 28.318C17.6331 26.9097 16.929 25.9709 15.9901 25.0321C14.9839 23.9471 14.4247 22.5219 14.4247 21.0421C14.4247 19.5623 14.9839 18.1371 15.9901 17.0521C16.4831 16.5374 17.0751 16.1277 17.7306 15.8479C18.3861 15.5681 19.0914 15.4238 19.8041 15.4238C20.5168 15.4238 21.2221 15.5681 21.8776 15.8479C22.5331 16.1277 23.1251 16.5374 23.6181 17.0521L24.0875 17.6389L24.5569 17.0521C25.7304 15.9959 26.9039 15.4092 28.4295 15.4092" fill="#0E0E0F"/>
</svg>
