<svg width="48" height="48" viewBox="0 0 48 48" fill="none" xmlns="http://www.w3.org/2000/svg">
<rect width="46.9411" height="46.9411" transform="translate(0.499603 0.388223)" fill="white"/>
<path d="M28.3122 13.297C26.6692 13.297 25.261 13.7664 23.9701 14.7053C22.5391 13.6305 20.7574 13.1308 18.9762 13.3046C17.195 13.4784 15.5435 14.313 14.3472 15.6441C13.043 17.1401 12.3244 19.0576 12.3244 21.0423C12.3244 23.027 13.043 24.9445 14.3472 26.4405C15.1687 27.6141 16.1075 28.4355 17.7504 29.9611L21.0363 32.7776L21.9751 33.599C22.5619 34.1858 23.1486 34.4205 23.9701 34.4205C24.6742 34.4205 25.3783 34.1858 25.9651 33.7164C28.3122 31.7214 32.1848 28.2008 33.7104 26.4405C34.9984 24.9304 35.6962 23.005 35.6746 21.0203C35.653 19.0356 34.9136 17.1258 33.593 15.6441C32.9198 14.9129 32.1039 14.3274 31.1956 13.9238C30.2874 13.5201 29.306 13.3068 28.3122 13.297ZM28.3122 15.4094C29.603 15.4094 31.0113 15.9961 32.0674 17.0523C33.0737 18.1373 33.6329 19.5625 33.6329 21.0423C33.6329 22.5221 33.0737 23.9473 32.0674 25.0323C29.4978 27.5979 26.795 30.0266 23.9701 32.3082L23.266 32.0735L22.3272 31.252L19.276 28.3182C17.6331 26.9099 16.9289 25.9711 15.9901 25.0323C14.9838 23.9473 14.4247 22.5221 14.4247 21.0423C14.4247 19.5625 14.9838 18.1373 15.9901 17.0523C16.4831 16.5376 17.0751 16.128 17.7306 15.8481C18.386 15.5683 19.0914 15.424 19.8041 15.424C20.5168 15.424 21.2221 15.5683 21.8776 15.8481C22.5331 16.128 23.1251 16.5376 23.618 17.0523L24.0875 17.6391L24.5569 17.0523C25.7304 15.9961 26.9039 15.4094 28.4295 15.4094" fill="#0E0E0F"/>
</svg>
