<svg width="17" height="17" viewBox="0 0 17 17" fill="none" xmlns="http://www.w3.org/2000/svg">
<path d="M8.33035 14.1278L4.31884 16.3389C3.83965 16.599 3.24409 16.4074 2.9908 15.9076C2.88812 15.7023 2.85389 15.4764 2.89496 15.2573L3.66167 10.5886L0.410017 7.28221C0.221842 7.08695 0.115569 6.82704 0.113023 6.55588C0.110477 6.28471 0.21185 6.02286 0.396326 5.8241C0.546929 5.66665 0.738605 5.55712 0.957663 5.52974L5.44152 4.84518L7.44727 0.600927C7.52051 0.427226 7.64336 0.278984 7.80044 0.174751C7.95751 0.0705181 8.14184 0.0149231 8.33035 0.0149231C8.51886 0.0149231 8.70319 0.0705181 8.86026 0.174751C9.01734 0.278984 9.14018 0.427226 9.21343 0.600927L11.2192 4.84518L15.703 5.52974C15.9652 5.57826 16.1981 5.72681 16.3527 5.94399C16.5073 6.16116 16.5713 6.42994 16.5313 6.69349C16.504 6.91255 16.4013 7.12476 16.2507 7.28221L12.999 10.5886L13.7657 15.2573C13.8616 15.8118 13.4988 16.3457 12.9648 16.4416C12.7594 16.4758 12.5335 16.4416 12.3487 16.3389L8.33035 14.1278Z" fill="#F7A301"/>
</svg>
