<svg width="40" height="40" viewBox="0 0 40 40" fill="none" xmlns="http://www.w3.org/2000/svg">
<rect width="40" height="40" fill="white"/>
<path d="M20 16C20.2638 16.0038 20.5154 16.1116 20.7 16.3L25.7 21.3C25.8146 21.386 25.9094 21.4956 25.978 21.6213C26.0466 21.7471 26.0873 21.8862 26.0975 22.0291C26.1077 22.172 26.087 22.3154 26.0369 22.4497C25.9868 22.5839 25.9084 22.7058 25.8071 22.8071C25.7058 22.9084 25.5839 22.9868 25.4497 23.0369C25.3155 23.087 25.172 23.1076 25.0291 23.0975C24.8862 23.0873 24.7471 23.0466 24.6214 22.978C24.4956 22.9094 24.386 22.8146 24.3 22.7L20 18.42L15.7 22.72C15.6096 22.824 15.4987 22.9082 15.3742 22.9673C15.2497 23.0264 15.1144 23.0591 14.9767 23.0634C14.8389 23.0678 14.7018 23.0436 14.5739 22.9924C14.4459 22.9412 14.33 22.8641 14.2332 22.766C14.1365 22.6679 14.061 22.5508 14.0117 22.4222C13.9623 22.2935 13.9401 22.1561 13.9463 22.0184C13.9526 21.8808 13.9873 21.7459 14.0481 21.6223C14.109 21.4986 14.1947 21.3889 14.3 21.3L19.3 16.3C19.4846 16.1116 19.7362 16.0038 20 16Z" fill="#0E0E0F"/>
</svg>
