<svg width="17" height="17" viewBox="0 0 17 17" fill="none" xmlns="http://www.w3.org/2000/svg">
<path d="M8.35377 14.1278L4.34226 16.3389C3.86307 16.599 3.26751 16.4074 3.01422 15.9076C2.91154 15.7023 2.87731 15.4764 2.91838 15.2573L3.68509 10.5886L0.433439 7.28221C0.245264 7.08695 0.138991 6.82704 0.136445 6.55588C0.133899 6.28471 0.235273 6.02286 0.419748 5.8241C0.570351 5.66665 0.762027 5.55712 0.981086 5.52974L5.46494 4.84518L7.47069 0.600927C7.54394 0.427226 7.66678 0.278984 7.82386 0.174751C7.98093 0.0705181 8.16526 0.0149231 8.35377 0.0149231C8.54228 0.0149231 8.72661 0.0705181 8.88368 0.174751C9.04076 0.278984 9.1636 0.427226 9.23685 0.600927L11.2426 4.84518L15.7265 5.52974C15.9886 5.57826 16.2215 5.72681 16.3761 5.94399C16.5307 6.16116 16.5948 6.42994 16.5548 6.69349C16.5274 6.91255 16.4247 7.12476 16.2741 7.28221L13.0225 10.5886L13.7892 15.2573C13.885 15.8118 13.5222 16.3457 12.9882 16.4416C12.7829 16.4758 12.557 16.4416 12.3721 16.3389L8.35377 14.1278Z" fill="#F7A301"/>
</svg>
