<svg width="48" height="48" viewBox="0 0 48 48" fill="none" xmlns="http://www.w3.org/2000/svg">
<rect width="46.9411" height="46.9411" transform="translate(0.499603 0.388223)" fill="white"/>
<path d="M28.3122 13.297C26.6693 13.297 25.261 13.7664 23.9702 14.7053C22.5391 13.6305 20.7575 13.1308 18.9763 13.3046C17.1951 13.4784 15.5436 14.313 14.3472 15.6441C13.043 17.1401 12.3245 19.0576 12.3245 21.0423C12.3245 23.027 13.043 24.9445 14.3472 26.4405C15.1687 27.6141 16.1075 28.4355 17.7505 29.9611L21.0363 32.7776L21.9752 33.599C22.5619 34.1858 23.1487 34.4205 23.9702 34.4205C24.6743 34.4205 25.3784 34.1858 25.9652 33.7164C28.3122 31.7214 32.1849 28.2008 33.7104 26.4405C34.9985 24.9304 35.6962 23.005 35.6747 21.0203C35.6531 19.0356 34.9137 17.1258 33.5931 15.6441C32.9198 14.9129 32.1039 14.3274 31.1957 13.9238C30.2874 13.5201 29.3061 13.3068 28.3122 13.297ZM28.3122 15.4094C29.6031 15.4094 31.0113 15.9961 32.0675 17.0523C33.0738 18.1373 33.6329 19.5625 33.6329 21.0423C33.6329 22.5221 33.0738 23.9473 32.0675 25.0323C29.4979 27.5979 26.795 30.0266 23.9702 32.3082L23.2661 32.0735L22.3272 31.252L19.2761 28.3182C17.6331 26.9099 16.929 25.9711 15.9902 25.0323C14.9839 23.9473 14.4248 22.5221 14.4248 21.0423C14.4248 19.5625 14.9839 18.1373 15.9902 17.0523C16.4831 16.5376 17.0752 16.128 17.7306 15.8481C18.3861 15.5683 19.0914 15.424 19.8041 15.424C20.5169 15.424 21.2222 15.5683 21.8776 15.8481C22.5331 16.128 23.1252 16.5376 23.6181 17.0523L24.0875 17.6391L24.5569 17.0523C25.7305 15.9961 26.904 15.4094 28.4296 15.4094" fill="#0E0E0F"/>
</svg>
