<svg width="17" height="17" viewBox="0 0 17 17" fill="none" xmlns="http://www.w3.org/2000/svg">
<path d="M8.32795 14.6489L4.31015 16.8635C3.83021 17.124 3.23371 16.9321 2.98002 16.4316C2.87718 16.2259 2.8429 15.9996 2.88404 15.7802L3.65194 11.1042L0.395194 7.7926C0.206723 7.59703 0.100284 7.33673 0.0977337 7.06513C0.0951835 6.79354 0.196716 6.53128 0.381481 6.33221C0.53232 6.17451 0.724297 6.06481 0.943699 6.03739L5.43459 5.35176L7.44349 1.10084C7.51685 0.926866 7.63989 0.778392 7.79721 0.673995C7.95453 0.569598 8.13914 0.513916 8.32795 0.513916C8.51676 0.513916 8.70137 0.569598 8.8587 0.673995C9.01602 0.778392 9.13905 0.926866 9.21242 1.10084L11.2213 5.35176L15.7122 6.03739C15.9747 6.08598 16.2081 6.23477 16.3629 6.45228C16.5177 6.6698 16.5819 6.93899 16.5418 7.20296C16.5144 7.42236 16.4115 7.63491 16.2607 7.7926L13.004 11.1042L13.7719 15.7802C13.8679 16.3356 13.5045 16.8704 12.9697 16.9664C12.764 17.0006 12.5377 16.9664 12.3526 16.8635L8.32795 14.6489Z" fill="#F7A301"/>
</svg>
