<svg width="17" height="17" viewBox="0 0 17 17" fill="none" xmlns="http://www.w3.org/2000/svg">
<path d="M8.35383 14.1278L4.34232 16.3389C3.86313 16.599 3.26757 16.4073 3.01428 15.9076C2.9116 15.7022 2.87737 15.4763 2.91844 15.2573L3.68515 10.5886L0.4335 7.28218C0.245325 7.08692 0.139052 6.82701 0.136506 6.55585C0.13396 6.28468 0.235334 6.02283 0.419809 5.82407C0.570412 5.66662 0.762088 5.55709 0.981147 5.52971L5.465 4.84515L7.47075 0.600896C7.544 0.427196 7.66684 0.278954 7.82392 0.174721C7.98099 0.0704876 8.16532 0.0148926 8.35383 0.0148926C8.54234 0.0148926 8.72667 0.0704876 8.88374 0.174721C9.04082 0.278954 9.16366 0.427196 9.23691 0.600896L11.2427 4.84515L15.7265 5.52971C15.9886 5.57823 16.2216 5.72678 16.3762 5.94396C16.5308 6.16113 16.5948 6.42991 16.5548 6.69346C16.5274 6.91252 16.4248 7.12473 16.2742 7.28218L13.0225 10.5886L13.7892 15.2573C13.8851 15.8118 13.5222 16.3457 12.9883 16.4416C12.7829 16.4758 12.557 16.4416 12.3722 16.3389L8.35383 14.1278Z" fill="#F7A301"/>
</svg>
