<svg width="48" height="48" viewBox="0 0 48 48" fill="none" xmlns="http://www.w3.org/2000/svg">
<rect width="46.9411" height="46.9411" transform="translate(0.499374 0.388149)" fill="white"/>
<path d="M28.312 13.2968C26.6691 13.2968 25.2608 13.7662 23.97 14.705C22.5389 13.6303 20.7572 13.1306 18.976 13.3044C17.1949 13.4782 15.5433 14.3128 14.347 15.6439C13.0428 17.1398 12.3243 19.0574 12.3243 21.0421C12.3243 23.0268 13.0428 24.9443 14.347 26.4403C15.1685 27.6138 16.1073 28.4353 17.7503 29.9609L21.0361 32.7774L21.975 33.5988C22.5617 34.1856 23.1485 34.4203 23.97 34.4203C24.6741 34.4203 25.3782 34.1856 25.9649 33.7162C28.312 31.7212 32.1846 28.2006 33.7102 26.4403C34.9983 24.9302 35.696 23.0048 35.6744 21.0201C35.6529 19.0354 34.9134 17.1256 33.5929 15.6439C32.9196 14.9127 32.1037 14.3272 31.1955 13.9235C30.2872 13.5199 29.3059 13.3066 28.312 13.2968ZM28.312 15.4092C29.6029 15.4092 31.0111 15.9959 32.0673 17.0521C33.0736 18.1371 33.6327 19.5623 33.6327 21.0421C33.6327 22.5219 33.0736 23.9471 32.0673 25.0321C29.4977 27.5977 26.7948 30.0264 23.97 32.3079L23.2658 32.0732L22.327 31.2518L19.2758 28.318C17.6329 26.9097 16.9288 25.9709 15.99 25.0321C14.9837 23.9471 14.4246 22.5219 14.4246 21.0421C14.4246 19.5623 14.9837 18.1371 15.99 17.0521C16.4829 16.5374 17.075 16.1277 17.7304 15.8479C18.3859 15.5681 19.0912 15.4238 19.8039 15.4238C20.5166 15.4238 21.222 15.5681 21.8774 15.8479C22.5329 16.1277 23.1249 16.5374 23.6179 17.0521L24.0873 17.6389L24.5567 17.0521C25.7302 15.9959 26.9038 15.4092 28.4294 15.4092" fill="#0E0E0F"/>
</svg>
