<svg width="17" height="17" viewBox="0 0 17 17" fill="none" xmlns="http://www.w3.org/2000/svg">
<path d="M8.66975 14.6489L4.65195 16.8635C4.172 17.124 3.57551 16.9321 3.32182 16.4316C3.21898 16.2259 3.1847 15.9996 3.22583 15.7802L3.99374 11.1042L0.736991 7.7926C0.54852 7.59703 0.442081 7.33673 0.439531 7.06513C0.43698 6.79354 0.538513 6.53128 0.723278 6.33221C0.874117 6.17451 1.06609 6.06481 1.2855 6.03739L5.77638 5.35176L7.78528 1.10084C7.85864 0.926866 7.98168 0.778392 8.139 0.673995C8.29632 0.569598 8.48094 0.513916 8.66975 0.513916C8.85856 0.513916 9.04317 0.569598 9.20049 0.673995C9.35781 0.778392 9.48085 0.926866 9.55421 1.10084L11.5631 5.35176L16.054 6.03739C16.3165 6.08598 16.5499 6.23477 16.7047 6.45228C16.8595 6.6698 16.9237 6.93899 16.8836 7.20296C16.8562 7.42236 16.7533 7.63491 16.6025 7.7926L13.3458 11.1042L14.1137 15.7802C14.2097 16.3356 13.8463 16.8704 13.3115 16.9664C13.1058 17.0006 12.8795 16.9664 12.6944 16.8635L8.66975 14.6489Z" fill="#F7A301"/>
</svg>
