<svg width="17" height="17" viewBox="0 0 17 17" fill="none" xmlns="http://www.w3.org/2000/svg">
<path d="M8.35371 14.1278L4.3422 16.3389C3.86301 16.599 3.26745 16.4074 3.01416 15.9076C2.91148 15.7023 2.87725 15.4764 2.91832 15.2573L3.68503 10.5886L0.433378 7.28221C0.245203 7.08695 0.13893 6.82704 0.136384 6.55588C0.133838 6.28471 0.235212 6.02286 0.419687 5.8241C0.57029 5.66665 0.761966 5.55712 0.981024 5.52974L5.46488 4.84518L7.47063 0.600927C7.54388 0.427226 7.66672 0.278984 7.8238 0.174751C7.98087 0.0705181 8.1652 0.0149231 8.35371 0.0149231C8.54222 0.0149231 8.72655 0.0705181 8.88362 0.174751C9.0407 0.278984 9.16354 0.427226 9.23679 0.600927L11.2425 4.84518L15.7264 5.52974C15.9885 5.57826 16.2215 5.72681 16.3761 5.94399C16.5306 6.16116 16.5947 6.42994 16.5547 6.69349C16.5273 6.91255 16.4246 7.12476 16.274 7.28221L13.0224 10.5886L13.7891 15.2573C13.8849 15.8118 13.5221 16.3457 12.9882 16.4416C12.7828 16.4758 12.5569 16.4416 12.3721 16.3389L8.35371 14.1278Z" fill="#F7A301"/>
</svg>
