<svg width="17" height="17" viewBox="0 0 17 17" fill="none" xmlns="http://www.w3.org/2000/svg">
<path d="M8.33033 14.1278L4.31883 16.3389C3.83964 16.599 3.24407 16.4073 2.99078 15.9076C2.8881 15.7022 2.85387 15.4763 2.89495 15.2573L3.66165 10.5886L0.410002 7.28218C0.221826 7.08692 0.115554 6.82701 0.113008 6.55585C0.110461 6.28468 0.211835 6.02283 0.396311 5.82407C0.546913 5.66662 0.73859 5.55709 0.957648 5.52971L5.4415 4.84515L7.44725 0.600896C7.5205 0.427196 7.64335 0.278954 7.80042 0.174721C7.95749 0.0704876 8.14182 0.0148926 8.33033 0.0148926C8.51885 0.0148926 8.70317 0.0704876 8.86025 0.174721C9.01732 0.278954 9.14017 0.427196 9.21341 0.600896L11.2192 4.84515L15.703 5.52971C15.9651 5.57823 16.1981 5.72678 16.3527 5.94396C16.5073 6.16113 16.5713 6.42991 16.5313 6.69346C16.504 6.91252 16.4013 7.12473 16.2507 7.28218L12.999 10.5886L13.7657 15.2573C13.8616 15.8118 13.4987 16.3457 12.9648 16.4416C12.7594 16.4758 12.5335 16.4416 12.3487 16.3389L8.33033 14.1278Z" fill="#F7A301"/>
</svg>
