<svg width="18" height="17" viewBox="0 0 18 17" fill="none" xmlns="http://www.w3.org/2000/svg">
<path d="M9.01087 14.1278L4.99937 16.3389C4.52018 16.599 3.92461 16.4073 3.67133 15.9076C3.56864 15.7022 3.53441 15.4763 3.57549 15.2573L4.34219 10.5886L1.09054 7.28218C0.902368 7.08692 0.796096 6.82701 0.79355 6.55585C0.791003 6.28468 0.892377 6.02283 1.07685 5.82407C1.22746 5.66662 1.41913 5.55709 1.63819 5.52971L6.12204 4.84515L8.1278 0.600896C8.20104 0.427196 8.32389 0.278954 8.48096 0.174721C8.63804 0.0704876 8.82236 0.0148926 9.01087 0.0148926C9.19939 0.0148926 9.38371 0.0704876 9.54079 0.174721C9.69786 0.278954 9.82071 0.427196 9.89395 0.600896L11.8997 4.84515L16.3836 5.52971C16.6457 5.57823 16.8787 5.72678 17.0332 5.94396C17.1878 6.16113 17.2519 6.42991 17.2119 6.69346C17.1845 6.91252 17.0818 7.12473 16.9312 7.28218L13.6796 10.5886L14.4463 15.2573C14.5421 15.8118 14.1793 16.3457 13.6453 16.4416C13.44 16.4758 13.2141 16.4416 13.0292 16.3389L9.01087 14.1278Z" fill="#F7A301"/>
</svg>
