<svg width="48" height="48" viewBox="0 0 48 48" fill="none" xmlns="http://www.w3.org/2000/svg">
<rect width="46.9411" height="46.9411" transform="translate(0.49942 0.388223)" fill="white"/>
<path d="M28.3121 13.297C26.6691 13.297 25.2609 13.7664 23.97 14.7053C22.539 13.6305 20.7573 13.1308 18.9761 13.3046C17.1949 13.4784 15.5434 14.313 14.3471 15.6441C13.0429 17.1401 12.3243 19.0576 12.3243 21.0423C12.3243 23.027 13.0429 24.9445 14.3471 26.4405C15.1685 27.6141 16.1074 28.4355 17.7503 29.9611L21.0362 32.7776L21.975 33.599C22.5618 34.1858 23.1485 34.4205 23.97 34.4205C24.6741 34.4205 25.3782 34.1858 25.965 33.7164C28.3121 31.7214 32.1847 28.2008 33.7103 26.4405C34.9983 24.9304 35.6961 23.005 35.6745 21.0203C35.6529 19.0356 34.9135 17.1258 33.5929 15.6441C32.9197 14.9129 32.1038 14.3274 31.1955 13.9238C30.2872 13.5201 29.3059 13.3068 28.3121 13.297ZM28.3121 15.4094C29.6029 15.4094 31.0112 15.9961 32.0673 17.0523C33.0736 18.1373 33.6328 19.5625 33.6328 21.0423C33.6328 22.5221 33.0736 23.9473 32.0673 25.0323C29.4977 27.5979 26.7949 30.0266 23.97 32.3082L23.2659 32.0735L22.3271 31.252L19.2759 28.3182C17.633 26.9099 16.9288 25.9711 15.99 25.0323C14.9837 23.9473 14.4246 22.5221 14.4246 21.0423C14.4246 19.5625 14.9837 18.1373 15.99 17.0523C16.483 16.5376 17.075 16.128 17.7305 15.8481C18.3859 15.5683 19.0913 15.424 19.804 15.424C20.5167 15.424 21.222 15.5683 21.8775 15.8481C22.533 16.128 23.125 16.5376 23.6179 17.0523L24.0874 17.6391L24.5568 17.0523C25.7303 15.9961 26.9038 15.4094 28.4294 15.4094" fill="#0E0E0F"/>
</svg>
