<svg width="48" height="48" viewBox="0 0 48 48" fill="none" xmlns="http://www.w3.org/2000/svg">
<rect width="47.0147" height="47.0147" transform="translate(0.8125 0.402952)" fill="white"/>
<path d="M28.6689 13.332C27.0233 13.332 25.6129 13.8021 24.32 14.7424C22.8867 13.666 21.1022 13.1655 19.3183 13.3396C17.5343 13.5136 15.8802 14.3496 14.682 15.6827C13.3757 17.1811 12.6561 19.1016 12.6561 21.0894C12.6561 23.0772 13.3757 24.9978 14.682 26.4961C15.5047 27.6715 16.445 28.4942 18.0905 30.0222L21.3816 32.8431L22.3219 33.6659C22.9096 34.2536 23.4972 34.4886 24.32 34.4886C25.0252 34.4886 25.7304 34.2536 26.3181 33.7834C28.6689 31.7853 32.5476 28.2592 34.0756 26.4961C35.3656 24.9836 36.0645 23.0552 36.0429 21.0674C36.0212 19.0796 35.2807 17.1668 33.958 15.6827C33.2837 14.9504 32.4665 14.364 31.5568 13.9597C30.6472 13.5554 29.6643 13.3418 28.6689 13.332ZM28.6689 15.4477C29.9618 15.4477 31.3722 16.0353 32.43 17.0932C33.4379 18.1799 33.9979 19.6073 33.9979 21.0894C33.9979 22.5716 33.4379 23.999 32.43 25.0857C29.8564 27.6553 27.1493 30.0878 24.32 32.373L23.6148 32.1379L22.6745 31.3151L19.6185 28.3767C17.973 26.9663 17.2678 26.026 16.3275 25.0857C15.3196 23.999 14.7596 22.5716 14.7596 21.0894C14.7596 19.6073 15.3196 18.1799 16.3275 17.0932C16.8212 16.5776 17.4142 16.1674 18.0707 15.8871C18.7272 15.6068 19.4336 15.4623 20.1474 15.4623C20.8613 15.4623 21.5677 15.6068 22.2242 15.8871C22.8807 16.1674 23.4737 16.5776 23.9674 17.0932L24.4375 17.6809L24.9077 17.0932C26.0831 16.0353 27.2584 15.4477 28.7864 15.4477" fill="#0E0E0F"/>
</svg>
