<svg width="18" height="17" viewBox="0 0 18 17" fill="none" xmlns="http://www.w3.org/2000/svg">
<path d="M9.01098 14.1278L4.99947 16.3389C4.52028 16.599 3.92472 16.4073 3.67143 15.9076C3.56875 15.7022 3.53452 15.4763 3.57559 15.2573L4.3423 10.5886L1.09065 7.28218C0.902475 7.08692 0.796203 6.82701 0.793656 6.55585C0.79111 6.28468 0.892484 6.02283 1.07696 5.82407C1.22756 5.66662 1.41924 5.55709 1.6383 5.52971L6.12215 4.84515L8.1279 0.600896C8.20115 0.427196 8.32399 0.278954 8.48107 0.174721C8.63814 0.0704876 8.82247 0.0148926 9.01098 0.0148926C9.19949 0.0148926 9.38382 0.0704876 9.54089 0.174721C9.69797 0.278954 9.82081 0.427196 9.89406 0.600896L11.8998 4.84515L16.3837 5.52971C16.6458 5.57823 16.8788 5.72678 17.0333 5.94396C17.1879 6.16113 17.252 6.42991 17.212 6.69346C17.1846 6.91252 17.0819 7.12473 16.9313 7.28218L13.6797 10.5886L14.4464 15.2573C14.5422 15.8118 14.1794 16.3457 13.6454 16.4416C13.4401 16.4758 13.2142 16.4416 13.0293 16.3389L9.01098 14.1278Z" fill="#F7A301"/>
</svg>
