<svg width="17" height="17" viewBox="0 0 17 17" fill="none" xmlns="http://www.w3.org/2000/svg">
<path d="M8.35379 14.1278L4.34228 16.3389C3.86309 16.599 3.26752 16.4073 3.01424 15.9076C2.91155 15.7022 2.87732 15.4763 2.9184 15.2573L3.6851 10.5886L0.433455 7.28218C0.245279 7.08692 0.139007 6.82701 0.13646 6.55585C0.133914 6.28468 0.235288 6.02283 0.419764 5.82407C0.570366 5.66662 0.762042 5.55709 0.981101 5.52971L5.46495 4.84515L7.47071 0.600896C7.54395 0.427196 7.6668 0.278954 7.82387 0.174721C7.98095 0.0704876 8.16527 0.0148926 8.35379 0.0148926C8.5423 0.0148926 8.72662 0.0704876 8.8837 0.174721C9.04077 0.278954 9.16362 0.427196 9.23686 0.600896L11.2426 4.84515L15.7265 5.52971C15.9886 5.57823 16.2216 5.72678 16.3761 5.94396C16.5307 6.16113 16.5948 6.42991 16.5548 6.69346C16.5274 6.91252 16.4247 7.12473 16.2741 7.28218L13.0225 10.5886L13.7892 15.2573C13.885 15.8118 13.5222 16.3457 12.9882 16.4416C12.7829 16.4758 12.557 16.4416 12.3721 16.3389L8.35379 14.1278Z" fill="#F7A301"/>
</svg>
