<svg width="17" height="17" viewBox="0 0 17 17" fill="none" xmlns="http://www.w3.org/2000/svg">
<path d="M8.3538 14.1278L4.34229 16.3389C3.8631 16.599 3.26754 16.4074 3.01425 15.9076C2.91157 15.7023 2.87734 15.4764 2.91841 15.2573L3.68512 10.5886L0.43347 7.28221C0.245294 7.08695 0.139022 6.82704 0.136476 6.55588C0.133929 6.28471 0.235303 6.02286 0.419779 5.8241C0.570381 5.66665 0.762058 5.55712 0.981116 5.52974L5.46497 4.84518L7.47072 0.600927C7.54397 0.427226 7.66681 0.278984 7.82389 0.174751C7.98096 0.0705181 8.16529 0.0149231 8.3538 0.0149231C8.54231 0.0149231 8.72664 0.0705181 8.88371 0.174751C9.04079 0.278984 9.16363 0.427226 9.23688 0.600927L11.2426 4.84518L15.7265 5.52974C15.9886 5.57826 16.2216 5.72681 16.3762 5.94399C16.5307 6.16116 16.5948 6.42994 16.5548 6.69349C16.5274 6.91255 16.4247 7.12476 16.2741 7.28221L13.0225 10.5886L13.7892 15.2573C13.885 15.8118 13.5222 16.3457 12.9883 16.4416C12.7829 16.4758 12.557 16.4416 12.3722 16.3389L8.3538 14.1278Z" fill="#F7A301"/>
</svg>
