<svg width="17" height="17" viewBox="0 0 17 17" fill="none" xmlns="http://www.w3.org/2000/svg">
<path d="M8.66973 14.6489L4.65193 16.8635C4.17199 17.124 3.57549 16.9321 3.32181 16.4316C3.21896 16.2259 3.18468 15.9996 3.22582 15.7802L3.99373 11.1042L0.736976 7.7926C0.548505 7.59703 0.442065 7.33673 0.439515 7.06513C0.436965 6.79354 0.538498 6.53128 0.723263 6.33221C0.874102 6.17451 1.06608 6.06481 1.28548 6.03739L5.77637 5.35176L7.78527 1.10084C7.85863 0.926866 7.98167 0.778392 8.13899 0.673995C8.29631 0.569598 8.48092 0.513916 8.66973 0.513916C8.85854 0.513916 9.04316 0.569598 9.20048 0.673995C9.3578 0.778392 9.48084 0.926866 9.5542 1.10084L11.5631 5.35176L16.054 6.03739C16.3165 6.08598 16.5499 6.23477 16.7047 6.45228C16.8595 6.6698 16.9237 6.93899 16.8836 7.20296C16.8562 7.42236 16.7533 7.63491 16.6025 7.7926L13.3457 11.1042L14.1136 15.7802C14.2096 16.3356 13.8463 16.8704 13.3115 16.9664C13.1058 17.0006 12.8795 16.9664 12.6944 16.8635L8.66973 14.6489Z" fill="#F7A301"/>
</svg>
