<svg width="18" height="17" viewBox="0 0 18 17" fill="none" xmlns="http://www.w3.org/2000/svg">
<path d="M9.01094 14.1278L4.99943 16.3389C4.52024 16.599 3.92467 16.4074 3.67139 15.9076C3.5687 15.7023 3.53448 15.4764 3.57555 15.2573L4.34225 10.5886L1.0906 7.28221C0.902429 7.08695 0.796157 6.82704 0.793611 6.55588C0.791065 6.28471 0.892438 6.02286 1.07691 5.8241C1.22752 5.66665 1.41919 5.55712 1.63825 5.52974L6.1221 4.84518L8.12786 0.600927C8.2011 0.427226 8.32395 0.278984 8.48102 0.174751C8.6381 0.0705181 8.82242 0.0149231 9.01094 0.0149231C9.19945 0.0149231 9.38377 0.0705181 9.54085 0.174751C9.69792 0.278984 9.82077 0.427226 9.89401 0.600927L11.8998 4.84518L16.3836 5.52974C16.6457 5.57826 16.8787 5.72681 17.0333 5.94399C17.1879 6.16116 17.2519 6.42994 17.2119 6.69349C17.1846 6.91255 17.0819 7.12476 16.9313 7.28221L13.6796 10.5886L14.4463 15.2573C14.5422 15.8118 14.1793 16.3457 13.6454 16.4416C13.44 16.4758 13.2141 16.4416 13.0293 16.3389L9.01094 14.1278Z" fill="#F7A301"/>
</svg>
