<svg width="17" height="17" viewBox="0 0 17 17" fill="none" xmlns="http://www.w3.org/2000/svg">
<path d="M8.35375 14.1278L4.34225 16.3389C3.86306 16.599 3.26749 16.4073 3.01421 15.9076C2.91152 15.7022 2.87729 15.4763 2.91837 15.2573L3.68507 10.5886L0.433424 7.28218C0.245249 7.08692 0.138976 6.82701 0.13643 6.55585C0.133884 6.28468 0.235257 6.02283 0.419733 5.82407C0.570336 5.66662 0.762012 5.55709 0.98107 5.52971L5.46492 4.84515L7.47068 0.600896C7.54392 0.427196 7.66677 0.278954 7.82384 0.174721C7.98092 0.0704876 8.16524 0.0148926 8.35375 0.0148926C8.54227 0.0148926 8.72659 0.0704876 8.88367 0.174721C9.04074 0.278954 9.16359 0.427196 9.23683 0.600896L11.2426 4.84515L15.7264 5.52971C15.9886 5.57823 16.2215 5.72678 16.3761 5.94396C16.5307 6.16113 16.5948 6.42991 16.5548 6.69346C16.5274 6.91252 16.4247 7.12473 16.2741 7.28218L13.0224 10.5886L13.7891 15.2573C13.885 15.8118 13.5222 16.3457 12.9882 16.4416C12.7828 16.4758 12.5569 16.4416 12.3721 16.3389L8.35375 14.1278Z" fill="#F7A301"/>
</svg>
