<svg width="17" height="17" viewBox="0 0 17 17" fill="none" xmlns="http://www.w3.org/2000/svg">
<path d="M8.66972 14.6489L4.65192 16.8635C4.17197 17.124 3.57547 16.9321 3.32179 16.4316C3.21895 16.2259 3.18466 15.9996 3.2258 15.7802L3.99371 11.1042L0.73696 7.7926C0.54849 7.59703 0.44205 7.33673 0.4395 7.06513C0.43695 6.79354 0.538482 6.53128 0.723248 6.33221C0.874087 6.17451 1.06606 6.06481 1.28547 6.03739L5.77635 5.35176L7.78525 1.10084C7.85861 0.926866 7.98165 0.778392 8.13897 0.673995C8.29629 0.569598 8.48091 0.513916 8.66972 0.513916C8.85853 0.513916 9.04314 0.569598 9.20046 0.673995C9.35778 0.778392 9.48082 0.926866 9.55418 1.10084L11.5631 5.35176L16.054 6.03739C16.3165 6.08598 16.5498 6.23477 16.7047 6.45228C16.8595 6.6698 16.9236 6.93899 16.8836 7.20296C16.8562 7.42236 16.7533 7.63491 16.6025 7.7926L13.3457 11.1042L14.1136 15.7802C14.2096 16.3356 13.8462 16.8704 13.3114 16.9664C13.1058 17.0006 12.8795 16.9664 12.6944 16.8635L8.66972 14.6489Z" fill="#F7A301"/>
</svg>
